<svg width="132" height="54" viewBox="0 0 132 54" fill="none" xmlns="http://www.w3.org/2000/svg">
<rect x="0.5" width="131" height="54" rx="6" fill="#EEF3FB"/>
<g clip-path="url(#clip0_135_2609)">
<rect x="20.5" y="17" width="26" height="10" fill="#DC251C"/>
<rect x="20.5" y="27" width="26" height="10" fill="white"/>
</g>
<rect x="21" y="17.75" width="25" height="18.5" rx="2.5" stroke="#C9D2E0"/>
<path d="M64.2614 34V19.4545H73.0398V21.017H66.0227V25.5625H69.7159C70.7576 25.5625 71.6359 25.733 72.3509 26.0739C73.0705 26.4148 73.6151 26.8954 73.9844 27.5156C74.3584 28.1359 74.5455 28.8674 74.5455 29.7102C74.5455 30.553 74.3584 31.2964 73.9844 31.9403C73.6151 32.5843 73.0705 33.0885 72.3509 33.4531C71.6359 33.8177 70.7576 34 69.7159 34H64.2614ZM66.0227 32.4659H69.7159C70.3788 32.4659 70.9399 32.3333 71.3991 32.0682C71.8632 31.7983 72.2135 31.4527 72.4503 31.0312C72.6918 30.6051 72.8125 30.1553 72.8125 29.6818C72.8125 28.9858 72.545 28.3868 72.0099 27.8849C71.4749 27.3783 70.7102 27.125 69.7159 27.125H66.0227V32.4659ZM80.4279 34.2557C79.7366 34.2557 79.1093 34.1255 78.5458 33.8651C77.9824 33.5999 77.5349 33.2188 77.2035 32.7216C76.872 32.2197 76.7063 31.6136 76.7063 30.9034C76.7063 30.2784 76.8294 29.7718 77.0756 29.3835C77.3219 28.9905 77.6509 28.6828 78.0629 28.4602C78.4748 28.2377 78.9293 28.072 79.4265 27.9631C79.9284 27.8494 80.4326 27.7595 80.9393 27.6932C81.6022 27.608 82.1396 27.544 82.5515 27.5014C82.9682 27.4541 83.2712 27.3759 83.4606 27.267C83.6547 27.1581 83.7518 26.9687 83.7518 26.6989V26.642C83.7518 25.9413 83.56 25.3968 83.1765 25.0085C82.7977 24.6203 82.2224 24.4261 81.4506 24.4261C80.6504 24.4261 80.0231 24.6013 79.5685 24.9517C79.114 25.3021 78.7944 25.6761 78.6097 26.0739L77.0188 25.5057C77.3029 24.8428 77.6817 24.3267 78.1552 23.9574C78.6334 23.5833 79.1542 23.3229 79.7177 23.1761C80.2859 23.0246 80.8446 22.9489 81.3938 22.9489C81.7442 22.9489 82.1467 22.9915 82.6012 23.0767C83.0605 23.1572 83.5032 23.3253 83.9293 23.581C84.3602 23.8366 84.7177 24.2225 85.0018 24.7386C85.2859 25.2547 85.4279 25.946 85.4279 26.8125V34H83.7518V32.5227H83.6665C83.5529 32.7595 83.3635 33.0128 83.0984 33.2827C82.8332 33.5526 82.4805 33.7822 82.0401 33.9716C81.5998 34.161 81.0624 34.2557 80.4279 34.2557ZM80.6836 32.75C81.3465 32.75 81.9052 32.6198 82.3597 32.3594C82.819 32.099 83.1647 31.7628 83.3967 31.3509C83.6334 30.9389 83.7518 30.5057 83.7518 30.0511V28.517C83.6808 28.6023 83.5245 28.6804 83.283 28.7514C83.0463 28.8177 82.7717 28.8769 82.4592 28.929C82.1514 28.9763 81.8507 29.0189 81.5572 29.0568C81.2683 29.09 81.034 29.1184 80.854 29.142C80.4184 29.1989 80.0112 29.2912 79.6325 29.419C79.2584 29.5421 78.9554 29.7292 78.7234 29.9801C78.4961 30.2263 78.3825 30.5625 78.3825 30.9886C78.3825 31.571 78.5979 32.0114 79.0288 32.3097C79.4644 32.6032 80.016 32.75 80.6836 32.75ZM87.5213 34V32.4375H87.919C88.2457 32.4375 88.518 32.3736 88.7358 32.2457C88.9536 32.1132 89.1288 31.8835 89.2614 31.5568C89.3987 31.2254 89.5028 30.7661 89.5739 30.179C89.6496 29.5871 89.7041 28.8343 89.7372 27.9205L89.9361 23.0909H97.2088V34H95.5327V24.6534H91.527L91.3565 28.5455C91.3187 29.4403 91.2382 30.2287 91.1151 30.9105C90.9967 31.5876 90.8144 32.1558 90.5682 32.6151C90.3267 33.0743 90.0047 33.42 89.6023 33.652C89.1998 33.884 88.6955 34 88.0895 34H87.5213ZM101.96 31.5284L107.216 23.0909H109.148V34H107.472V25.5625L102.244 34H100.284V23.0909H101.96V31.5284Z" fill="black"/>
<defs>
<clipPath id="clip0_135_2609">
<rect x="20.5" y="17.25" width="26" height="19.5" rx="3" fill="white"/>
</clipPath>
</defs>
</svg>
