<svg width="145" height="54" viewBox="0 0 145 54" fill="none" xmlns="http://www.w3.org/2000/svg">
<rect x="0.5" width="144" height="54" rx="6" fill="#EEF3FB"/>
<g clip-path="url(#clip0_135_2602)">
<rect x="20.5" y="23.75" width="26" height="6.5" fill="#F5F8FB"/>
<rect x="20.5" y="17.25" width="26" height="6.5" fill="#2B9F5A"/>
<rect x="20.5" y="30.25" width="26" height="6.5" fill="#272727"/>
<rect x="20.5" y="17.25" width="8.125" height="19.5" fill="#DC251C"/>
</g>
<path d="M63.0114 37.5227V32.4375H63.9489C64.2708 32.1439 64.5739 31.7296 64.858 31.1946C65.1468 30.6548 65.3906 29.9351 65.5895 29.0355C65.7931 28.1312 65.928 26.983 65.9943 25.5909L66.3068 19.4545H74.9432V32.4375H76.6193V37.4943H74.9432V34H64.6875V37.5227H63.0114ZM66.0511 32.4375H73.267V21.017H67.8977L67.6705 25.5909C67.6136 26.6515 67.5142 27.6127 67.3722 28.4744C67.2301 29.3314 67.0478 30.0914 66.8253 30.7543C66.6027 31.4124 66.3447 31.9735 66.0511 32.4375ZM80.1332 38.0909C79.8491 38.0909 79.5958 38.0672 79.3732 38.0199C79.1507 37.9773 78.9968 37.9347 78.9116 37.892L79.3377 36.4148C79.7449 36.5189 80.1048 36.5568 80.4173 36.5284C80.7298 36.5 81.0067 36.3603 81.2482 36.1094C81.4944 35.8632 81.7193 35.4631 81.9229 34.9091L82.2354 34.0568L78.2013 23.0909H80.0195L83.0309 31.7841H83.1445L86.1559 23.0909H87.9741L83.3434 35.5909C83.1351 36.1544 82.877 36.6207 82.5692 36.9901C82.2615 37.3641 81.904 37.6411 81.4968 37.821C81.0943 38.0009 80.6398 38.0909 80.1332 38.0909ZM98.283 19L99.1353 20.0227C98.8039 20.3447 98.4203 20.5696 97.9847 20.6974C97.5491 20.8253 97.0567 20.9034 96.5075 20.9318C95.9582 20.9602 95.3474 20.9886 94.6751 21.017C93.9175 21.0455 93.2901 21.2301 92.793 21.571C92.2958 21.9119 91.9123 22.4044 91.6424 23.0483C91.3725 23.6922 91.1997 24.483 91.1239 25.4205H91.266C91.6353 24.7386 92.1467 24.2367 92.8001 23.9148C93.4535 23.5928 94.1542 23.4318 94.9023 23.4318C95.7546 23.4318 96.5217 23.6307 97.2035 24.0284C97.8853 24.4261 98.4251 25.0156 98.8228 25.7969C99.2205 26.5781 99.4194 27.5417 99.4194 28.6875C99.4194 29.8286 99.2158 30.8134 98.8086 31.642C98.4061 32.4706 97.8403 33.1098 97.1112 33.5597C96.3867 34.0047 95.5368 34.2273 94.5614 34.2273C93.5861 34.2273 92.7314 33.9976 91.9975 33.5384C91.2636 33.0743 90.6931 32.3878 90.2859 31.4787C89.8787 30.5649 89.6751 29.4356 89.6751 28.0909V26.9261C89.6751 24.4972 90.087 22.6553 90.9109 21.4006C91.7395 20.1458 92.9847 19.4972 94.6467 19.4545C95.2338 19.4356 95.757 19.4309 96.2163 19.4403C96.6755 19.4498 97.0756 19.4285 97.4165 19.3764C97.7575 19.3243 98.0463 19.1989 98.283 19ZM94.5614 32.7216C95.2196 32.7216 95.7854 32.5559 96.2589 32.2244C96.7371 31.893 97.104 31.4266 97.3597 30.8253C97.6154 30.2192 97.7433 29.5066 97.7433 28.6875C97.7433 27.892 97.613 27.215 97.3526 26.6562C97.0969 26.0975 96.73 25.6714 96.2518 25.3778C95.7736 25.0843 95.2006 24.9375 94.533 24.9375C94.0453 24.9375 93.6074 25.0204 93.2191 25.1861C92.8308 25.3518 92.4994 25.5956 92.2248 25.9176C91.9502 26.2396 91.7371 26.6326 91.5856 27.0966C91.4388 27.5606 91.3607 28.0909 91.3512 28.6875C91.3512 29.9091 91.6377 30.8868 92.2106 31.6207C92.7835 32.3546 93.5671 32.7216 94.5614 32.7216ZM105.194 34.2557C104.502 34.2557 103.875 34.1255 103.311 33.8651C102.748 33.5999 102.301 33.2188 101.969 32.7216C101.638 32.2197 101.472 31.6136 101.472 30.9034C101.472 30.2784 101.595 29.7718 101.841 29.3835C102.087 28.9905 102.417 28.6828 102.828 28.4602C103.24 28.2377 103.695 28.072 104.192 27.9631C104.694 27.8494 105.198 27.7595 105.705 27.6932C106.368 27.608 106.905 27.544 107.317 27.5014C107.734 27.4541 108.037 27.3759 108.226 27.267C108.42 27.1581 108.517 26.9687 108.517 26.6989V26.642C108.517 25.9413 108.326 25.3968 107.942 25.0085C107.563 24.6203 106.988 24.4261 106.216 24.4261C105.416 24.4261 104.789 24.6013 104.334 24.9517C103.88 25.3021 103.56 25.6761 103.375 26.0739L101.784 25.5057C102.069 24.8428 102.447 24.3267 102.921 23.9574C103.399 23.5833 103.92 23.3229 104.483 23.1761C105.051 23.0246 105.61 22.9489 106.159 22.9489C106.51 22.9489 106.912 22.9915 107.367 23.0767C107.826 23.1572 108.269 23.3253 108.695 23.581C109.126 23.8366 109.483 24.2225 109.767 24.7386C110.051 25.2547 110.194 25.946 110.194 26.8125V34H108.517V32.5227H108.432C108.319 32.7595 108.129 33.0128 107.864 33.2827C107.599 33.5526 107.246 33.7822 106.806 33.9716C106.365 34.161 105.828 34.2557 105.194 34.2557ZM105.449 32.75C106.112 32.75 106.671 32.6198 107.125 32.3594C107.585 32.099 107.93 31.7628 108.162 31.3509C108.399 30.9389 108.517 30.5057 108.517 30.0511V28.517C108.446 28.6023 108.29 28.6804 108.049 28.7514C107.812 28.8177 107.537 28.8769 107.225 28.929C106.917 28.9763 106.616 29.0189 106.323 29.0568C106.034 29.09 105.8 29.1184 105.62 29.142C105.184 29.1989 104.777 29.2912 104.398 29.419C104.024 29.5421 103.721 29.7292 103.489 29.9801C103.262 30.2263 103.148 30.5625 103.148 30.9886C103.148 31.571 103.364 32.0114 103.794 32.3097C104.23 32.6032 104.782 32.75 105.449 32.75ZM114.929 31.5284L120.185 23.0909H122.116V34H120.44V25.5625L115.213 34H113.253V23.0909H114.929V31.5284ZM119.077 19.4545H120.639C120.639 20.2216 120.374 20.849 119.844 21.3366C119.313 21.8243 118.594 22.0682 117.685 22.0682C116.79 22.0682 116.077 21.8243 115.547 21.3366C115.021 20.849 114.759 20.2216 114.759 19.4545H116.321C116.321 19.8239 116.423 20.1482 116.626 20.4276C116.835 20.7069 117.188 20.8466 117.685 20.8466C118.182 20.8466 118.537 20.7069 118.75 20.4276C118.968 20.1482 119.077 19.8239 119.077 19.4545Z" fill="black"/>
<defs>
<clipPath id="clip0_135_2602">
<rect x="20.5" y="17.25" width="26" height="19.5" rx="3" fill="white"/>
</clipPath>
</defs>
</svg>
