<svg width="136" height="116" viewBox="0 0 136 116" fill="none" xmlns="http://www.w3.org/2000/svg">
<path d="M68.2766 5.96455C61.0867 4.82228 53.8946 3.68976 46.7004 2.56701C45.0031 2.30201 43.6092 2.13604 42.5188 2.06909C39.5639 1.88639 36.6103 1.96449 33.6582 2.30341" stroke="#EBBE80" stroke-width="2.44444"/>
<path d="M33.6583 2.30341C32.9178 2.38848 32.1787 2.48193 31.441 2.58375C28.2458 3.02308 25.1911 3.92337 22.2769 5.28462" stroke="#FFE49E" stroke-width="2.44444"/>
<path d="M22.2768 5.28462C22.1827 5.28602 22.0639 5.32228 21.9206 5.39341C17.2402 7.73236 13.2876 10.9067 10.0629 14.9166C8.06621 17.3992 6.51286 19.7953 5.40282 22.105C3.04505 27.006 1.91253 32.2585 2.00526 37.8625C2.02915 39.2517 2.14297 40.6415 2.34671 42.0321C3.2249 48.0001 5.4246 53.5483 8.94581 58.6767C9.17203 59.0072 9.34767 59.2192 9.47273 59.3126" stroke="#EBBE80" stroke-width="2.44444"/>
<path d="M9.47286 59.3126C8.05229 60.7631 7.12913 62.4807 6.70338 64.4654C6.32681 66.213 6.31909 67.8051 6.6802 69.2417C7.51062 72.5471 9.54803 74.9328 12.7924 76.3987" stroke="#FFE49E" stroke-width="2.44444"/>
<path d="M12.7922 76.3987C14.7482 77.2397 16.768 77.414 18.8518 76.9217" stroke="#EBBE80" stroke-width="2.44444"/>
<path d="M18.8518 76.9217C18.9585 76.9315 18.9923 76.9831 18.9529 77.0765C18.0326 79.276 17.7726 81.5166 18.1731 83.7984C18.3529 84.8249 18.6396 85.6938 19.033 86.4051C19.4812 87.214 20.084 87.9302 20.8414 88.5537C22.2086 89.6806 23.6706 90.5683 25.2275 91.2169" stroke="#FFE49E" stroke-width="2.44444"/>
<path d="M25.2275 91.2169C27.2692 92.1416 29.374 92.2957 31.5421 91.6793" stroke="#EBBE80" stroke-width="2.44444"/>
<path d="M31.5422 91.6793C31.3005 93.6109 31.6553 95.422 32.6066 97.1124C33.8754 99.3691 35.6985 101.027 38.076 102.087" stroke="#FFE49E" stroke-width="2.44444"/>
<path d="M38.0759 102.087C38.1743 102.185 38.3218 102.268 38.5185 102.336C40.4351 103 42.3629 103.129 44.302 102.723" stroke="#EBBE80" stroke-width="2.44444"/>
<path d="M44.302 102.723C44.0463 104.633 44.3814 106.423 45.3074 108.094C46.7251 110.65 48.745 112.454 51.3669 113.504C52.4039 113.919 53.4451 114.136 54.4905 114.154C55.6272 114.174 56.6965 114.009 57.6983 113.659C59.2004 113.136 60.7594 112.292 62.3753 111.127" stroke="#FFE49E" stroke-width="2.44444"/>
<path d="M62.3752 111.127C64.511 113.158 67.1807 114.189 70.3844 114.221C74.2274 114.261 77.2132 112.834 79.342 109.941" stroke="#EBBE80" stroke-width="2.44444"/>
<path d="M79.342 109.941C80.3931 108.449 81.1132 106.894 81.5024 105.278C81.5319 105.154 81.5818 105.084 81.652 105.069" stroke="#FFE49E" stroke-width="2.44444"/>
<path d="M81.6519 105.069C84.0223 106.801 86.6597 107.304 89.564 106.577" stroke="#EBBE80" stroke-width="2.44444"/>
<path d="M89.564 106.577C92.3784 105.998 94.6666 104.594 96.4286 102.364C97.8267 100.594 98.5595 98.6535 98.6269 96.5433C98.6382 96.1709 98.6909 95.9066 98.785 95.7504" stroke="#FFE49E" stroke-width="2.44444"/>
<path d="M98.7849 95.7504C98.8917 95.9234 99.0673 96.0482 99.3118 96.1249C101.383 96.7776 103.438 96.8446 105.477 96.3258" stroke="#EBBE80" stroke-width="2.44444"/>
<path d="M105.477 96.3258C107.977 95.68 110.007 94.4227 111.568 92.5537C112.445 91.5049 113.072 90.3947 113.45 89.2231C113.841 88.0111 113.993 86.7203 113.908 85.3507C113.797 83.5808 113.481 81.9622 112.959 80.495" stroke="#FFE49E" stroke-width="2.44444"/>
<path d="M112.959 80.495C114.812 80.6219 116.604 80.3548 118.334 79.6937" stroke="#EBBE80" stroke-width="2.44444"/>
<path d="M118.334 79.6937C118.456 79.6352 118.566 79.5598 118.663 79.4678C118.779 79.3576 118.882 79.2795 118.972 79.2335C120.17 78.6184 121.197 77.792 122.056 76.7543C124.3 74.0472 125.061 70.9502 124.341 67.4634C123.939 65.5178 122.938 63.789 121.337 62.2771" stroke="#FFE49E" stroke-width="2.44444"/>
<path d="M121.337 62.2771L121.335 62.183C121.335 62.1349 121.364 62.0763 121.417 62.0261C123.178 60.3636 124.767 58.5525 126.185 56.5929" stroke="#EBBE80" stroke-width="2.44444"/>
<path d="M126.185 56.5929C129.334 52.286 131.592 47.5565 132.959 42.4044C133.774 39.3388 134.11 36.2202 133.968 33.0486C133.824 29.7864 133.12 26.6734 131.859 23.7096C131.333 22.4739 130.708 21.2263 129.983 19.9668C128.906 18.0993 127.643 16.3552 126.193 14.7345C125.049 13.4542 124.015 12.3545 123.089 11.4353C121.124 9.48133 118.921 7.7456 116.479 6.22814C113.691 4.4959 110.691 3.27203 107.479 2.55654C104.932 1.98889 102.226 1.73156 99.3626 1.78456C98.5532 1.79851 97.1495 1.86266 95.1515 1.97703C92.0841 2.15277 89.0273 2.45124 85.981 2.87244C80.1414 3.67859 74.3453 4.72394 68.5928 6.00847C68.4958 6.03079 68.3904 6.01615 68.2766 5.96454" stroke="#FFE49E" stroke-width="2.44444"/>
<path d="M126.185 56.593C126.019 56.5121 125.707 56.261 125.249 55.8398C113.554 45.0893 100.698 33.9664 86.6788 22.4711C85.6179 21.6008 84.7524 20.9076 84.0821 20.3916C83.3121 19.7988 82.8063 19.4348 82.5646 19.2995C81.959 18.962 81.3415 18.803 80.712 18.8225C79.6385 18.8546 78.4224 19.1635 77.0636 19.7493C75.5292 20.4104 74.0005 21.0847 72.4773 21.7723C71.682 22.1322 70.8614 22.4216 70.0156 22.6405C67.7562 23.2235 65.489 23.7745 63.2141 24.2933C61.3748 24.7131 59.6725 24.9293 58.1073 24.9418C55.408 24.9642 53.013 24.0813 50.9222 22.2933C49.5143 21.0882 48.6951 19.6872 48.4647 18.0903C48.1907 16.1879 48.7394 14.45 50.1108 12.8768C50.7571 12.1362 51.447 11.4807 52.1805 10.9102C52.4995 10.662 52.4692 10.6097 52.0899 10.7533C51.1695 11.1034 50.2766 11.5072 49.411 11.9646C48.4176 12.4905 47.6139 13.0407 46.9998 13.6153C45.3629 15.1509 44.4735 17.0268 44.3315 19.243C44.2458 20.5987 44.465 21.9648 44.9891 23.3414C45.8884 25.7082 47.4551 27.5974 49.6892 29.0088C51.0536 29.8708 52.5634 30.3415 54.2186 30.421C54.5165 30.4363 54.8242 30.4175 55.1418 30.3645C55.5015 30.3045 55.805 30.2404 56.0523 30.172C57.9871 29.6379 60.1208 28.9579 62.4533 28.1323C65.7581 26.9635 69.0784 25.84 72.4141 24.7619C73.659 24.3602 74.6089 24.1636 75.2637 24.172C76.4411 24.1887 77.5062 24.5457 78.4589 25.2431C79.5858 26.0674 81.0169 27.2536 82.7522 28.8017C84.7039 30.5423 85.7493 31.474 85.8884 31.5968C97.3668 41.6485 108.88 51.6619 120.427 61.637C120.434 61.6439 120.532 61.7444 120.722 61.9382C120.889 62.1098 121.094 62.2228 121.337 62.2771" stroke="#EBA31F" stroke-width="2.44444"/>
<path d="M118.334 79.6937C118.383 79.564 118.383 79.4622 118.334 79.3883C118.157 79.1261 117.897 78.8262 117.554 78.4887C114.383 75.3603 111.231 72.2124 108.099 69.045C107.764 68.7089 107.361 68.4864 106.887 68.3776C106.442 68.2758 106 68.3058 105.561 68.4676C104.863 68.7256 104.393 69.204 104.151 69.9028C104.002 70.3337 103.987 70.7682 104.105 71.2061C104.229 71.6608 104.453 72.0562 104.779 72.3924C106.54 74.2097 109.218 76.9119 112.814 80.4992C112.835 80.5201 112.871 80.5243 112.906 80.5117L112.959 80.495" stroke="#EBA31F" stroke-width="2.44444"/>
<path d="M105.477 96.3258C105.49 96.2351 105.441 96.1291 105.332 96.0078C101.989 92.2476 98.6138 88.5167 95.2064 84.8151C94.6458 84.2043 94.1519 83.8082 93.7247 83.6268C92.588 83.1457 91.662 83.5327 90.9468 84.7879C90.6321 85.3417 90.5653 85.8995 90.7466 86.4616C90.8506 86.7796 91.147 87.2141 91.636 87.765C94.0064 90.4373 96.3895 93.0991 98.7852 95.7505" stroke="#EBA31F" stroke-width="2.44444"/>
<path d="M89.5642 106.577C86.9774 103.875 84.4004 101.165 81.8333 98.445C81.2544 97.8328 80.9347 97.5015 80.8743 97.4513C80.4724 97.1222 80.0319 96.9415 79.5528 96.9095C78.5608 96.8411 77.8308 97.1821 77.3629 97.9325C77.0552 98.4276 76.9449 98.9555 77.032 99.5162C77.1177 100.075 77.3742 100.588 77.8013 101.054C79.2739 102.665 80.5574 104.003 81.652 105.069" stroke="#EBA31F" stroke-width="2.44444"/>
<path d="M79.342 109.941C79.0581 109.947 78.8649 109.961 78.7624 109.985C74.0398 111.063 69.7303 110.246 65.8339 107.535C65.7854 107.502 65.718 107.51 65.6822 107.556C64.6536 108.815 63.5513 110.006 62.3752 111.127" stroke="#EBA31F" stroke-width="2.44444"/>
<path d="M44.3019 102.723L60.552 87.9574C60.7459 87.7803 60.9742 87.7078 61.237 87.7398C64.7483 88.1736 67.4995 89.7664 69.4906 92.5182C70.9393 94.5182 71.3517 96.7295 70.7278 99.1522C70.3934 100.456 69.8882 101.691 69.2124 102.857C69.159 102.949 69.1695 102.957 69.244 102.88C71.2449 100.819 72.9275 98.5531 74.2919 96.0831C75.1279 94.5712 75.6555 92.9701 75.8747 91.2797C75.9688 90.5586 75.9717 89.8835 75.8831 89.2545C75.7834 88.539 75.6014 87.8828 75.3373 87.2859C74.2441 84.8172 72.4786 82.8883 70.0407 81.4992C69.0402 80.9301 67.9815 80.5898 66.8644 80.4782C66.8265 80.474 66.7949 80.4531 66.7738 80.4217C66.7548 80.3904 66.7527 80.3527 66.7654 80.3171C67.1771 79.3046 67.4504 78.2732 67.5853 77.223C67.7201 76.1727 67.6941 75.1162 67.5073 74.0534C67.097 71.7215 66.0467 69.7619 64.3563 68.1747C63.3488 67.2291 62.1763 66.4745 60.8386 65.9111C58.8799 65.0854 56.787 64.7667 54.5599 64.955C54.4685 64.962 54.4503 64.9285 54.5051 64.8546C55.4732 63.5254 55.8849 62.086 55.7402 60.5365C55.6502 59.5839 55.3369 58.6132 54.8001 57.6243C54.3112 56.7205 53.688 55.89 52.9306 55.1326C51.666 53.8676 50.2434 52.8837 48.6626 52.1807C47.3699 51.6061 46.1426 51.3055 44.9805 51.279C43.6963 51.2497 42.4232 51.5022 41.1614 52.0364C41.094 52.0657 41.0708 52.0454 41.0919 51.9757C41.6174 50.302 41.4432 48.749 40.5692 47.3166C39.3566 45.3305 37.6725 43.9714 35.5171 43.2392C34.9424 43.0425 34.36 42.9267 33.7698 42.8919C33.1263 42.8528 32.527 42.8842 31.972 42.986C30.5528 43.2468 29.1358 43.7768 27.7208 44.576C25.0315 46.0976 22.5774 47.9722 20.3588 50.1995C20.2253 50.3334 20.2407 50.3543 20.4051 50.2623C23.7886 48.371 27.2248 48.2992 30.7137 50.0468C32.5867 50.9854 33.9926 52.4255 34.9312 54.3669C34.9586 54.4255 34.9459 54.4946 34.8996 54.5406C27.5663 61.7708 20.2632 68.9683 12.9904 76.133C12.8779 76.2432 12.8119 76.3317 12.7922 76.3987" stroke="#EBA31F" stroke-width="2.44444"/>
<path d="M9.47266 59.3126C10.6108 58.2011 11.8009 57.148 13.043 56.1536C14.3638 55.0964 15.6818 54.0155 16.997 52.9109C17.1045 52.8209 17.1298 52.664 17.0518 52.5469C13.8763 47.7225 12.1304 42.4777 11.8143 36.8123C11.6091 33.1107 11.9569 29.4021 12.8576 25.6866C14.6069 18.4815 17.6673 11.934 22.0386 6.04405C22.0414 6.03847 22.1137 5.96246 22.2557 5.81601C22.4018 5.66399 22.4088 5.48686 22.2767 5.28462" stroke="#EBA31F" stroke-width="2.44444"/>
<path d="M33.6582 2.30341C37.2806 3.16813 39.722 3.8104 40.9823 4.23022C42.6319 4.78113 44.252 5.40527 45.8426 6.10263C48.2833 7.17378 50.5926 8.57547 52.7705 10.3077C52.8485 10.3684 52.9518 10.3872 53.0466 10.3537C57.883 8.66752 62.7489 7.28884 67.6443 6.21769C67.9338 6.15493 68.1445 6.07055 68.2766 5.96455" stroke="#EBA31F" stroke-width="2.44444"/>
<path d="M38.076 102.087C38.2011 101.923 38.4364 101.683 38.7821 101.368C46.2123 94.6172 53.6432 87.8675 61.0749 81.1184C61.1212 81.0745 61.1381 81.0096 61.117 80.951C60.4538 79.0696 59.3318 77.4635 57.7511 76.133C56.0017 74.6602 54.0086 73.8317 51.7716 73.6476C51.2616 73.6057 50.5625 73.6811 49.6745 73.8735C49.607 73.8882 49.5459 73.9216 49.4953 73.9698L31.5422 91.6792" stroke="#EBA31F" stroke-width="2.44444"/>
<path d="M25.2275 91.2169L50.0748 66.7019C50.1212 66.6558 50.1359 66.5889 50.1106 66.5303C49.2999 64.5596 48.0774 62.9529 46.4433 61.7102C45.3065 60.8454 44.1614 60.2136 43.0078 59.8147C41.6996 59.3628 40.3612 59.2492 38.9927 59.4737C37.9712 59.6425 36.9019 60.01 35.7848 60.5763C35.3394 60.8022 34.9073 61.1223 34.4886 61.5365C29.2911 66.6802 24.0788 71.8086 18.8518 76.9217" stroke="#EBA31F" stroke-width="2.44444"/>
<path d="M126.185 56.5929C126.019 56.512 125.707 56.261 125.249 55.8398C113.554 45.0893 100.698 33.9664 86.6788 22.4711C85.6179 21.6008 84.7524 20.9076 84.0822 20.3915C83.3122 19.7988 82.8063 19.4348 82.5646 19.2995C81.959 18.962 81.3415 18.803 80.712 18.8225C79.6385 18.8546 78.4224 19.1635 77.0636 19.7493C75.5293 20.4104 74.0005 21.0847 72.4773 21.7723C71.6821 22.1322 70.8615 22.4216 70.0156 22.6405C67.7562 23.2235 65.489 23.7744 63.2142 24.2933C61.3749 24.7131 59.6726 24.9293 58.1073 24.9418C55.4081 24.9641 53.013 24.0813 50.9222 22.2932C49.5143 21.0882 48.6951 19.6872 48.4647 18.0903C48.1907 16.1878 48.7394 14.45 50.1108 12.8768C50.7571 12.1362 51.447 11.4807 52.1805 10.9102C52.4995 10.662 52.4693 10.6097 52.0899 10.7533C51.1695 11.1034 50.2766 11.5072 49.411 11.9646C48.4176 12.4904 47.6139 13.0407 46.9999 13.6153C45.3629 15.1509 44.4735 17.0268 44.3316 19.243C44.2458 20.5987 44.465 21.9648 44.9892 23.3414C45.8884 25.7082 47.4551 27.5974 49.6892 29.0088C51.0536 29.8708 52.5634 30.3415 54.2186 30.421C54.5165 30.4363 54.8242 30.4175 55.1418 30.3645C55.5015 30.3045 55.805 30.2404 56.0523 30.172C57.9871 29.6378 60.1208 28.9579 62.4533 28.1322C65.7581 26.9635 69.0784 25.84 72.4141 24.7619C73.659 24.3602 74.6089 24.1636 75.2637 24.1719C76.4412 24.1887 77.5062 24.5457 78.4589 25.2431C79.5858 26.0674 81.0169 27.2536 82.7522 28.8017C84.7039 30.5423 85.7493 31.474 85.8884 31.5967C97.3668 41.6485 108.88 51.6619 120.427 61.6369C120.434 61.6439 120.532 61.7443 120.722 61.9382C120.889 62.1098 121.094 62.2227 121.337 62.2771C122.938 63.789 123.939 65.5178 124.341 67.4634C125.062 70.9502 124.3 74.0472 122.056 76.7543C121.197 77.792 120.17 78.6184 118.972 79.2335C118.883 79.2795 118.779 79.3576 118.663 79.4678C118.566 79.5598 118.456 79.6351 118.334 79.6937C118.383 79.564 118.383 79.4622 118.334 79.3883C118.157 79.1261 117.897 78.8262 117.554 78.4887C114.383 75.3603 111.231 72.2124 108.099 69.045C107.765 68.7089 107.361 68.4864 106.887 68.3776C106.442 68.2758 106 68.3058 105.561 68.4676C104.863 68.7256 104.393 69.204 104.151 69.9028C104.002 70.3337 103.987 70.7682 104.105 71.2061C104.229 71.6608 104.453 72.0562 104.779 72.3923C106.54 74.2097 109.218 76.9119 112.814 80.4992C112.835 80.5201 112.871 80.5243 112.907 80.5117L112.959 80.495C113.481 81.9622 113.797 83.5808 113.908 85.3507C113.993 86.7203 113.841 88.0111 113.45 89.2231C113.072 90.3947 112.445 91.5049 111.568 92.5537C110.007 94.4227 107.977 95.68 105.477 96.3258C105.49 96.2351 105.441 96.1291 105.332 96.0078C101.989 92.2476 98.6138 88.5167 95.2064 84.8151C94.6458 84.2042 94.1519 83.8081 93.7247 83.6268C92.588 83.1456 91.662 83.5327 90.9468 84.7879C90.6321 85.3416 90.5653 85.8995 90.7466 86.4616C90.8506 86.7796 91.1471 87.214 91.636 87.765C94.0065 90.4372 96.3895 93.0991 98.7852 95.7504C98.6911 95.9066 98.6384 96.1709 98.6272 96.5433C98.5597 98.6535 97.827 100.594 96.4289 102.364C94.6669 104.594 92.3786 105.998 89.5642 106.577C86.9774 103.875 84.4004 101.165 81.8333 98.445C81.2544 97.8328 80.9347 97.5015 80.8743 97.4513C80.4724 97.1222 80.0319 96.9415 79.5528 96.9095C78.5608 96.8411 77.8308 97.1821 77.3629 97.9325C77.0552 98.4276 76.9449 98.9555 77.032 99.5162C77.1177 100.075 77.3742 100.588 77.8013 101.054C79.2739 102.665 80.5574 104.003 81.652 105.069C81.5818 105.084 81.5319 105.154 81.5024 105.278C81.1132 106.894 80.393 108.449 79.342 109.941C79.0582 109.947 78.865 109.961 78.7624 109.985C74.0398 111.063 69.7304 110.246 65.834 107.535C65.7855 107.502 65.7181 107.51 65.6822 107.556C64.6537 108.815 63.5514 110.006 62.3753 111.127C60.7594 112.292 59.2004 113.136 57.6984 113.659C56.6965 114.009 55.6272 114.174 54.4905 114.154C53.4451 114.136 52.4039 113.919 51.367 113.504C48.745 112.454 46.7252 110.65 45.3074 108.094C44.3814 106.423 44.0463 104.633 44.3021 102.723L60.5522 87.9574C60.7461 87.7803 60.9744 87.7078 61.2372 87.7399C64.7485 88.1736 67.4997 89.7664 69.4908 92.5182C70.9395 94.5182 71.3519 96.7295 70.728 99.1522C70.3936 100.456 69.8884 101.691 69.2126 102.857C69.1592 102.949 69.1697 102.957 69.2442 102.88C71.2451 100.819 72.9277 98.5531 74.2921 96.0831C75.1281 94.5712 75.6557 92.9701 75.8749 91.2797C75.969 90.5586 75.9719 89.8835 75.8833 89.2545C75.7836 88.539 75.6016 87.8828 75.3374 87.2859C74.2443 84.8172 72.4788 82.8883 70.0409 81.4992C69.0404 80.9301 67.9817 80.5898 66.8646 80.4782C66.8267 80.4741 66.7951 80.4531 66.774 80.4218C66.755 80.3904 66.7529 80.3527 66.7656 80.3171C67.1773 79.3046 67.4506 78.2732 67.5855 77.223C67.7203 76.1727 67.6943 75.1162 67.5075 74.0535C67.0972 71.7215 66.0469 69.7619 64.3565 68.1747C63.349 67.2291 62.1765 66.4745 60.8388 65.9111C58.8801 65.0854 56.7872 64.7667 54.5601 64.955C54.4687 64.962 54.4505 64.9285 54.5053 64.8546C55.4734 63.5254 55.8851 62.086 55.7404 60.5365C55.6504 59.5839 55.3371 58.6132 54.8003 57.6243C54.3114 56.7206 53.6882 55.89 52.9308 55.1327C51.6662 53.8676 50.2436 52.8837 48.6628 52.1807C47.3701 51.6061 46.1427 51.3055 44.9807 51.279C43.6964 51.2498 42.4234 51.5022 41.1616 52.0364C41.0942 52.0657 41.071 52.0454 41.0921 51.9757C41.6176 50.302 41.4434 48.749 40.5694 47.3166C39.3568 45.3306 37.6727 43.9714 35.5173 43.2392C34.9426 43.0425 34.3602 42.9268 33.77 42.8919C33.1265 42.8528 32.5272 42.8842 31.9722 42.986C30.553 43.2468 29.136 43.7768 27.721 44.576C25.0317 46.0977 22.5776 47.9722 20.359 50.1995C20.2255 50.3334 20.2409 50.3543 20.4053 50.2623C23.7888 48.3711 27.225 48.2992 30.7139 50.0468C32.5869 50.9855 33.9928 52.4255 34.9314 54.367C34.9588 54.4255 34.9461 54.4946 34.8998 54.5406C27.5665 61.7708 20.2634 68.9683 12.9906 76.133C12.8781 76.2432 12.8121 76.3317 12.7924 76.3987C9.54803 74.9328 7.51062 72.5471 6.6802 69.2417C6.31909 67.8051 6.32681 66.213 6.70338 64.4654C7.12913 62.4807 8.05229 60.7631 9.47286 59.3126C10.611 58.201 11.8011 57.148 13.0432 56.1536C14.3641 55.0964 15.682 54.0155 16.9972 52.9109C17.1047 52.8209 17.13 52.664 17.052 52.5468C13.8765 47.7225 12.1306 42.4777 11.8145 36.8123C11.6093 33.1107 11.9571 29.4021 12.8578 25.6866C14.6071 18.4815 17.6675 11.934 22.0388 6.04404C22.0416 6.03846 22.1139 5.96245 22.2559 5.816C22.402 5.66398 22.409 5.48685 22.2769 5.28461C25.1911 3.92336 28.2458 3.02307 31.4411 2.58374C32.1788 2.48192 32.9178 2.38847 33.6583 2.3034C37.2807 3.16812 39.7221 3.81039 40.9825 4.2302C42.6321 4.78112 44.2522 5.40526 45.8428 6.10262C48.2834 7.17377 50.5927 8.57546 52.7707 10.3077C52.8486 10.3684 52.9519 10.3872 53.0468 10.3537C57.8832 8.66751 62.7491 7.28883 67.6445 6.21768C67.9339 6.15492 68.1447 6.07054 68.2768 5.96454C68.3906 6.01615 68.496 6.03079 68.5929 6.00847C74.3454 4.72394 80.1415 3.67859 85.9812 2.87244C89.0275 2.45124 92.0843 2.15277 95.1516 1.97703C97.1497 1.86266 98.5534 1.79851 99.3627 1.78456C102.226 1.73156 104.932 1.98889 107.479 2.55654C110.691 3.27203 113.691 4.4959 116.479 6.22814C118.921 7.7456 121.124 9.48133 123.089 11.4353C124.015 12.3545 125.05 13.4542 126.193 14.7345C127.643 16.3552 128.907 18.0993 129.983 19.9668C130.708 21.2263 131.333 22.4739 131.859 23.7096C133.121 26.6734 133.824 29.7864 133.969 33.0486C134.11 36.2202 133.774 39.3388 132.959 42.4044C131.592 47.5565 129.334 52.286 126.185 56.5929Z" fill="#FFC83D"/>
<path d="M68.2766 5.96457C68.1446 6.07057 67.9338 6.15495 67.6443 6.21771C62.7489 7.28886 57.883 8.66754 53.0466 10.3538C52.9518 10.3872 52.8485 10.3684 52.7705 10.3077C50.5926 8.57548 48.2833 7.17379 45.8426 6.10265C44.252 5.40529 42.6319 4.78115 40.9823 4.23023C39.722 3.81042 37.2806 3.16815 33.6582 2.30342C36.6103 1.9645 39.5639 1.8864 42.5188 2.06911C43.6092 2.13606 45.0031 2.30203 46.7004 2.56703C53.8946 3.68978 61.0867 4.82229 68.2766 5.96457Z" fill="#D67D00"/>
<path d="M22.2768 5.28462C22.4089 5.48686 22.4019 5.66399 22.2557 5.81601C22.1138 5.96246 22.0414 6.03847 22.0386 6.04405C17.6673 11.934 14.607 18.4815 12.8576 25.6866C11.957 29.4021 11.6092 33.1107 11.8143 36.8123C12.1305 42.4777 13.8763 47.7225 17.0519 52.5469C17.1299 52.664 17.1046 52.8209 16.9971 52.9109C15.6819 54.0155 14.3639 55.0964 13.0431 56.1536C11.801 57.148 10.6109 58.2011 9.47273 59.3126C9.34767 59.2192 9.17203 59.0072 8.94581 58.6767C5.4246 53.5483 3.2249 48.0001 2.34671 42.0321C2.14297 40.6415 2.02915 39.2517 2.00526 37.8625C1.91253 32.2585 3.04505 27.006 5.40282 22.105C6.51286 19.7953 8.06621 17.3992 10.0629 14.9166C13.2876 10.9067 17.2402 7.73236 21.9206 5.39341C22.0639 5.32228 22.1827 5.28602 22.2768 5.28462Z" fill="#D67D00"/>
<path d="M126.185 56.593C124.767 58.5525 123.178 60.3636 121.417 62.0261C121.365 62.0763 121.335 62.1349 121.335 62.183L121.337 62.2771C121.094 62.2228 120.889 62.1098 120.722 61.9382C120.532 61.7444 120.434 61.6439 120.427 61.637C108.88 51.6619 97.3668 41.6485 85.8884 31.5968C85.7493 31.474 84.7039 30.5423 82.7522 28.8017C81.0169 27.2536 79.5858 26.0674 78.4589 25.2431C77.5062 24.5457 76.4411 24.1887 75.2637 24.172C74.6089 24.1636 73.659 24.3602 72.4141 24.7619C69.0784 25.84 65.7581 26.9635 62.4533 28.1323C60.1208 28.9579 57.9871 29.6379 56.0523 30.172C55.805 30.2404 55.5015 30.3045 55.1418 30.3645C54.8242 30.4175 54.5165 30.4363 54.2186 30.421C52.5634 30.3415 51.0536 29.8708 49.6892 29.0088C47.4551 27.5974 45.8884 25.7082 44.9891 23.3414C44.465 21.9648 44.2458 20.5987 44.3315 19.243C44.4735 17.0268 45.3629 15.1509 46.9998 13.6153C47.6139 13.0407 48.4176 12.4905 49.411 11.9646C50.2766 11.5072 51.1695 11.1034 52.0899 10.7533C52.4692 10.6097 52.4995 10.662 52.1805 10.9102C51.447 11.4807 50.7571 12.1362 50.1108 12.8768C48.7394 14.45 48.1907 16.1879 48.4647 18.0903C48.6951 19.6872 49.5143 21.0882 50.9222 22.2933C53.013 24.0813 55.408 24.9642 58.1073 24.9418C59.6725 24.9293 61.3748 24.7131 63.2141 24.2933C65.489 23.7745 67.7562 23.2235 70.0156 22.6405C70.8615 22.4216 71.682 22.1322 72.4773 21.7723C74.0005 21.0847 75.5292 20.4104 77.0636 19.7493C78.4224 19.1635 79.6385 18.8546 80.712 18.8225C81.3415 18.803 81.959 18.962 82.5646 19.2995C82.8063 19.4348 83.3121 19.7988 84.0821 20.3916C84.7524 20.9076 85.6179 21.6008 86.6788 22.4711C100.698 33.9664 113.554 45.0893 125.249 55.8398C125.707 56.261 126.019 56.5121 126.185 56.593Z" fill="#D67D00"/>
<path d="M44.3019 102.723C42.3628 103.129 40.435 103 38.5184 102.336C38.3217 102.268 38.1742 102.185 38.0758 102.087C38.2009 101.923 38.4362 101.683 38.7819 101.368C46.2121 94.6173 53.643 87.8675 61.0747 81.1184C61.121 81.0745 61.1379 81.0096 61.1168 80.9511C60.4536 79.0696 59.3316 77.4636 57.7509 76.133C56.0015 74.6602 54.0084 73.8317 51.7714 73.6476C51.2614 73.6058 50.5623 73.6811 49.6743 73.8736C49.6069 73.8882 49.5457 73.9217 49.4952 73.9698L31.542 91.6793C29.374 92.2957 27.2691 92.1416 25.2275 91.2169L50.0748 66.7019C50.1211 66.6559 50.1359 66.5889 50.1106 66.5303C49.2998 64.5596 48.0774 62.9529 46.4432 61.7102C45.3065 60.8455 44.1613 60.2137 43.0077 59.8148C41.6996 59.3629 40.3612 59.2492 38.9926 59.4738C37.9711 59.6425 36.9018 60.01 35.7848 60.5763C35.3394 60.8022 34.9073 61.1223 34.4886 61.5365C29.2911 66.6803 24.0788 71.8087 18.8518 76.9217C16.768 77.4141 14.7482 77.2397 12.7922 76.3987C12.8119 76.3318 12.8779 76.2432 12.9904 76.133C20.2632 68.9683 27.5663 61.7709 34.8996 54.5406C34.9459 54.4946 34.9586 54.4256 34.9312 54.367C33.9926 52.4255 32.5867 50.9855 30.7137 50.0468C27.2248 48.2992 23.7886 48.3711 20.4051 50.2623C20.2407 50.3544 20.2253 50.3335 20.3588 50.1996C22.5774 47.9722 25.0315 46.0977 27.7208 44.576C29.1358 43.7769 30.5528 43.2469 31.972 42.9861C32.527 42.8842 33.1263 42.8529 33.7698 42.8919C34.36 42.9268 34.9424 43.0425 35.5171 43.2392C37.6725 43.9714 39.3566 45.3306 40.5692 47.3167C41.4432 48.749 41.6174 50.3021 41.0919 51.9757C41.0708 52.0455 41.094 52.0657 41.1614 52.0364C42.4232 51.5022 43.6963 51.2498 44.9805 51.2791C46.1426 51.3056 47.3699 51.6061 48.6626 52.1808C50.2434 52.8837 51.666 53.8677 52.9306 55.1327C53.688 55.89 54.3112 56.7206 54.8001 57.6244C55.3369 58.6132 55.6502 59.5839 55.7402 60.5365C55.8849 62.0861 55.4732 63.5254 54.5051 64.8546C54.4503 64.9285 54.4685 64.962 54.5599 64.955C56.787 64.7667 58.8799 65.0854 60.8386 65.9111C62.1763 66.4746 63.3488 67.2291 64.3563 68.1747C66.0467 69.7619 67.097 71.7215 67.5073 74.0535C67.6941 75.1163 67.7201 76.1728 67.5853 77.223C67.4504 78.2732 67.1771 79.3046 66.7654 80.3172C66.7527 80.3527 66.7548 80.3904 66.7738 80.4218C66.7949 80.4532 66.8265 80.4741 66.8644 80.4783C67.9815 80.5898 69.0402 80.9302 70.0407 81.4992C72.4785 82.8883 74.2441 84.8172 75.3372 87.2859C75.6014 87.8828 75.7834 88.5391 75.8831 89.2545C75.9717 89.8836 75.9688 90.5586 75.8747 91.2797C75.6555 92.9701 75.1279 94.5712 74.2919 96.0831C72.9275 98.5532 71.2449 100.819 69.244 102.88C69.1695 102.957 69.159 102.949 69.2124 102.857C69.8882 101.691 70.3934 100.456 70.7278 99.1522C71.3517 96.7296 70.9393 94.5182 69.4906 92.5182C67.4995 89.7664 64.7483 88.1736 61.237 87.7399C60.9742 87.7078 60.7459 87.7803 60.552 87.9575L44.3019 102.723Z" fill="#D67D00"/>
<path d="M25.2275 91.2169C23.6706 90.5683 22.2086 89.6806 20.8414 88.5537C20.084 87.9302 19.4812 87.214 19.033 86.4051C18.6396 85.6938 18.3529 84.8249 18.1731 83.7984C17.7726 81.5166 18.0326 79.276 18.9529 77.0765C18.9923 76.9831 18.9585 76.9315 18.8518 76.9217C24.0788 71.8086 29.291 66.6802 34.4885 61.5365C34.9073 61.1223 35.3393 60.8022 35.7848 60.5763C36.9018 60.01 37.9711 59.6425 38.9926 59.4737C40.3612 59.2492 41.6996 59.3628 43.0077 59.8147C44.1613 60.2136 45.3065 60.8454 46.4432 61.7102C48.0774 62.9529 49.2998 64.5596 50.1106 66.5303C50.1359 66.5889 50.1211 66.6558 50.0747 66.7019L25.2275 91.2169Z" fill="#FFC83D"/>
<path d="M118.334 79.6937C116.604 80.3548 114.813 80.6219 112.959 80.495L112.906 80.5117C112.871 80.5243 112.835 80.5201 112.814 80.4992C109.218 76.912 106.54 74.2097 104.779 72.3924C104.453 72.0562 104.229 71.6608 104.105 71.2062C103.987 70.7682 104.002 70.3337 104.151 69.9028C104.393 69.204 104.863 68.7256 105.561 68.4676C106 68.3058 106.442 68.2758 106.887 68.3777C107.361 68.4864 107.764 68.7089 108.099 69.045C111.231 72.2124 114.383 75.3603 117.554 78.4887C117.897 78.8262 118.157 79.1261 118.334 79.3883C118.383 79.4622 118.383 79.564 118.334 79.6937Z" fill="#D67D00"/>
<path d="M38.076 102.087C35.6985 101.027 33.8754 99.369 32.6066 97.1124C31.6553 95.422 31.3005 93.6109 31.5422 91.6792L49.4953 73.9698C49.5459 73.9216 49.607 73.8882 49.6745 73.8735C50.5625 73.6811 51.2615 73.6057 51.7716 73.6476C54.0085 73.8317 56.0017 74.6602 57.751 76.133C59.3318 77.4635 60.4538 79.0696 61.117 80.951C61.1381 81.0096 61.1212 81.0745 61.0748 81.1184C53.6432 87.8675 46.2123 94.6172 38.782 101.368C38.4364 101.683 38.201 101.923 38.076 102.087Z" fill="#FFC83D"/>
<path d="M105.477 96.3258C103.438 96.8446 101.383 96.7777 99.3121 96.1249C99.0676 96.0482 98.892 95.9234 98.7852 95.7504C96.3895 93.0991 94.0064 90.4372 91.636 87.765C91.147 87.214 90.8506 86.7796 90.7466 86.4616C90.5653 85.8995 90.6321 85.3416 90.9468 84.7879C91.662 83.5327 92.588 83.1456 93.7247 83.6268C94.1519 83.8081 94.6458 84.2042 95.2064 84.8151C98.6138 88.5167 101.989 92.2476 105.332 96.0078C105.441 96.1291 105.49 96.2351 105.477 96.3258Z" fill="#D67D00"/>
<path d="M89.5642 106.577C86.6598 107.304 84.0224 106.801 81.652 105.069C80.5574 104.003 79.2739 102.665 77.8013 101.054C77.3742 100.588 77.1177 100.075 77.032 99.5162C76.9449 98.9555 77.0552 98.4276 77.3629 97.9325C77.8308 97.1821 78.5608 96.8411 79.5528 96.9094C80.0319 96.9415 80.4724 97.1221 80.8743 97.4513C80.9347 97.5015 81.2544 97.8327 81.8333 98.445C84.4004 101.165 86.9774 103.875 89.5642 106.577Z" fill="#D67D00"/>
<path d="M79.342 109.941C77.2132 112.834 74.2274 114.26 70.3844 114.221C67.1807 114.189 64.511 113.158 62.3752 111.127C63.5513 110.006 64.6536 108.815 65.6822 107.556C65.718 107.51 65.7854 107.502 65.8339 107.535C69.7303 110.246 74.0398 111.063 78.7624 109.985C78.8649 109.961 79.0581 109.947 79.342 109.941Z" fill="#D67D00"/>
</svg>
