<svg width="132" height="29" viewBox="0 0 132 29" fill="none" xmlns="http://www.w3.org/2000/svg">
<path d="M57.3035 22.4389V0.72052H61.8696V22.4389H57.3035Z" fill="black"/>
<path d="M123.365 22.6731C121.687 22.6731 120.194 22.3218 118.887 21.6193C117.599 20.9169 116.575 19.9607 115.814 18.7509C115.072 17.5215 114.701 16.1263 114.701 14.5653C114.701 12.9847 115.072 11.5895 115.814 10.3796C116.575 9.1503 117.599 8.19414 118.887 7.51118C120.194 6.80869 121.687 6.45745 123.365 6.45745C125.024 6.45745 126.507 6.80869 127.814 7.51118C129.122 8.19414 130.146 9.14054 130.888 10.3504C131.629 11.5602 132 12.9652 132 14.5653C132 16.1263 131.629 17.5215 130.888 18.7509C130.146 19.9607 129.122 20.9169 127.814 21.6193C126.507 22.3218 125.024 22.6731 123.365 22.6731ZM123.365 18.9265C124.126 18.9265 124.809 18.7509 125.414 18.3996C126.019 18.0484 126.497 17.5508 126.848 16.9069C127.2 16.2434 127.375 15.4629 127.375 14.5653C127.375 13.6481 127.2 12.8676 126.848 12.2237C126.497 11.5797 126.019 11.0821 125.414 10.7309C124.809 10.3796 124.126 10.204 123.365 10.204C122.604 10.204 121.921 10.3796 121.316 10.7309C120.712 11.0821 120.224 11.5797 119.853 12.2237C119.502 12.8676 119.326 13.6481 119.326 14.5653C119.326 15.4629 119.502 16.2434 119.853 16.9069C120.224 17.5508 120.712 18.0484 121.316 18.3996C121.921 18.7509 122.604 18.9265 123.365 18.9265Z" fill="#4A86E8"/>
<path fill-rule="evenodd" clip-rule="evenodd" d="M0 12.9554V22.4389H4.74175V16.7312H8.86883C8.94355 16.7312 9.01785 16.7308 9.09173 16.7298L13.0252 22.4389H18.1474L13.5704 15.8707C13.5838 15.8649 13.5972 15.859 13.6106 15.8531C14.9375 15.2677 15.9619 14.4287 16.6839 13.3359C17.4059 12.2237 17.7669 10.9065 17.7669 9.38446C17.7669 7.8429 17.4059 6.51599 16.6839 5.40373C15.9619 4.29147 14.9375 3.44264 13.6106 2.85724C12.2837 2.25232 10.7031 1.94986 8.86883 1.94986H0V5.81351H2.63431H4.74175H8.6054C10.0689 5.81351 11.1617 6.12573 11.8836 6.75015C12.6056 7.37458 12.9666 8.25268 12.9666 9.38446C12.9666 10.4967 12.6056 11.3748 11.8836 12.0188C11.1617 12.6432 10.0689 12.9554 8.6054 12.9554H4.74175H2.63431H0Z" fill="black"/>
<path fill-rule="evenodd" clip-rule="evenodd" d="M79.2743 27.971C80.0744 28.2246 80.8842 28.3515 81.7037 28.3515C82.6599 28.3515 83.5282 28.2051 84.3088 27.9124C85.1088 27.6197 85.8308 27.1124 86.4748 26.3904C87.1382 25.6684 87.7236 24.6732 88.231 23.4048L95.3436 6.69161H90.9531L86.5047 17.3862L82.0842 6.69161H77.3718L84.1891 22.5704L84.1332 22.7023C83.8209 23.4048 83.4697 23.9024 83.0794 24.1951C82.7087 24.5073 82.2013 24.6634 81.5574 24.6634C81.1086 24.6634 80.65 24.5756 80.1817 24.4C79.7329 24.2244 79.3329 23.9805 78.9816 23.6683L77.3132 26.9172C77.8206 27.366 78.4743 27.7173 79.2743 27.971ZM84.1891 22.5704L84.3966 23.0536L87.5285 19.8631L86.5047 17.3862L85.304 20.2729L84.9527 20.7705L84.1891 22.5704Z" fill="black"/>
<path d="M85.304 20.2729L84.9527 20.7705L84.1891 22.5704L84.3966 23.0536L87.5285 19.8631L86.5047 17.3862L85.304 20.2729Z" fill="black"/>
<path fill-rule="evenodd" clip-rule="evenodd" d="M101.773 18.4422V22.4389H97.2068V0.72052H101.773V13.0195L108.447 6.69161H113.891L107.332 13.3588L106.485 12.2822L103.617 15.8239L103.979 16.2733L101.773 18.4422ZM103.979 16.2733L108.944 22.4389H114.476L107.332 13.3588L106.837 13.8628L104.466 15.7946L103.979 16.2733Z" fill="#4A86E8"/>
<path d="M104.466 15.7946L106.837 13.8628L107.332 13.3588L106.485 12.2822L103.617 15.8239L103.979 16.2733L104.466 15.7946Z" fill="#4A86E8"/>
<path fill-rule="evenodd" clip-rule="evenodd" d="M24.2752 21.6193C25.6411 22.3218 27.2217 22.6731 29.0169 22.6731C30.4414 22.6731 31.7 22.4584 32.7928 22.0291C33.8855 21.5803 34.7929 20.9461 35.5149 20.1266L33.0855 17.4923C32.5586 17.9996 31.9732 18.3801 31.3293 18.6338C30.7048 18.8875 29.9731 19.0143 29.134 19.0143C28.1974 19.0143 27.3778 18.8484 26.6753 18.5167C25.9924 18.1655 25.4557 17.6679 25.0655 17.0239C24.8635 16.6626 24.7166 16.2724 24.6247 15.8531H32.383H36.5393C36.5588 15.658 36.5784 15.4531 36.5979 15.2385C36.6174 15.0043 36.6271 14.7994 36.6271 14.6238C36.6271 12.9261 36.2662 11.4724 35.5442 10.2626C34.8222 9.03322 33.8367 8.09658 32.5879 7.45264C31.3585 6.78918 29.9731 6.45745 28.4315 6.45745C26.8314 6.45745 25.3972 6.80869 24.1288 7.51118C22.8605 8.19414 21.8555 9.1503 21.114 10.3796C20.392 11.5895 20.031 12.9847 20.031 14.5653C20.031 16.1263 20.4018 17.5215 21.1433 18.7509C21.8848 19.9607 22.9288 20.9169 24.2752 21.6193ZM24.572 13.1896H32.3267C32.2527 12.6935 32.1056 12.2447 31.8854 11.8431C31.5537 11.2382 31.0951 10.7699 30.5097 10.4382C29.9243 10.0869 29.2413 9.91132 28.4608 9.91132C27.6803 9.91132 26.9875 10.0869 26.3826 10.4382C25.7972 10.7699 25.3387 11.248 25.0069 11.8724C24.7929 12.2627 24.6479 12.7018 24.572 13.1896ZM24.5093 14.0384V14.7409C24.5093 15.1165 24.5448 15.4735 24.6158 15.8118C24.6187 15.8256 24.6216 15.8394 24.6247 15.8531H23.7483V13.1896H24.572C24.5302 13.4578 24.5093 13.7407 24.5093 14.0384Z" fill="black"/>
<path d="M23.7483 13.1896V15.8531H24.6247L24.6158 15.8118C24.5448 15.4735 24.5093 15.1165 24.5093 14.7409V14.0384C24.5093 13.7407 24.5302 13.4578 24.572 13.1896H23.7483Z" fill="black"/>
<path fill-rule="evenodd" clip-rule="evenodd" d="M48.8975 20.4821V22.4389H53.1709V13.453C53.1709 11.0529 52.5075 9.28689 51.1805 8.15512C49.8536 7.02334 47.9901 6.45745 45.59 6.45745C44.3411 6.45745 43.1118 6.62332 41.9019 6.95504C40.6921 7.28677 39.6579 7.75509 38.7993 8.36001L40.4384 11.5504C41.0043 11.1016 41.6873 10.7504 42.4873 10.4967C43.3069 10.2235 44.1362 10.0869 44.9753 10.0869C46.2046 10.0869 47.112 10.3601 47.6974 10.9065C48.3023 11.4529 48.6048 12.2139 48.6048 13.1896H44.9753C43.3752 13.1896 42.0776 13.3945 41.0824 13.8042C40.0872 14.1945 39.3554 14.7409 38.8871 15.4434C38.4383 16.1458 38.2139 16.9654 38.2139 17.9021C38.2139 18.7997 38.4481 19.6095 38.9164 20.3315C39.3847 21.0535 40.0579 21.6291 40.936 22.0584C41.8141 22.4682 42.8678 22.6731 44.0972 22.6731C45.4826 22.6731 46.6144 22.4096 47.4925 21.8828C48.0854 21.5271 48.5537 21.0602 48.8975 20.4821ZM48.8975 19.3656V20.4821C48.9038 20.4715 48.91 20.4609 48.9162 20.4503C49.0732 20.1808 49.2036 19.8875 49.3073 19.5704L48.6048 17.463V15.8531H45.4729C44.3996 15.8531 43.6581 16.0288 43.2484 16.38C42.8581 16.7312 42.663 17.1703 42.663 17.6972C42.663 18.2826 42.8874 18.7509 43.3362 19.1021C43.8045 19.4339 44.4387 19.5997 45.2387 19.5997C45.9997 19.5997 46.6827 19.4241 47.2876 19.0729C47.8925 18.7021 48.3316 18.1655 48.6048 17.463V18.6923L48.8975 19.3656Z" fill="black"/>
<path d="M48.6048 18.6923L48.8975 19.3656V20.4821L48.9162 20.4503C49.0732 20.1808 49.2036 19.8875 49.3073 19.5704L48.6048 17.463V18.6923Z" fill="black"/>
<path fill-rule="evenodd" clip-rule="evenodd" d="M69.3868 21.2681C70.421 22.2048 71.865 22.6731 73.7187 22.6731C74.4212 22.6731 75.0944 22.595 75.7384 22.4389C76.4018 22.2633 76.9677 22.0096 77.436 21.6779L76.2067 18.4582C75.6993 18.8485 75.0847 19.0436 74.3627 19.0436C73.7578 19.0436 73.2797 18.868 72.9284 18.5167C72.5772 18.146 72.4016 17.6289 72.4016 16.9654V10.5553H76.3238V7.04286H72.4016V3.20848H67.8354V7.04286H65.406V10.5553H67.8354V17.0239C67.8354 18.8972 68.3525 20.312 69.3868 21.2681ZM67.8354 10.5553H72.4016V7.04286H67.8354V10.5553Z" fill="black"/>
<path d="M67.8354 10.5553H72.4016V7.04286H67.8354V10.5553Z" fill="black"/>
</svg>
