<svg width="68" height="68" viewBox="0 0 68 68" fill="none" xmlns="http://www.w3.org/2000/svg">
<path d="M31.5827 1.25301C30.9993 1.43837 29.986 2.14893 29.3411 2.85948C27.8978 4.37328 11.7763 30.355 11.2543 31.9924C10.7629 33.4444 11.0086 35.7305 11.7763 37.2443C12.7589 39.2215 14.5093 40.1175 21.1421 42.1256L27.1916 43.9483L27.2837 53.0929C27.3758 62.2066 27.3758 62.2375 28.1435 63.6277C29.8938 66.7171 33.5173 67.8601 36.8645 66.3155C38.8298 65.3886 37.9085 66.7171 48.8712 49.1076C52.7096 42.9288 56.1489 37.2443 56.4867 36.472C57.7764 33.5062 56.5481 29.7062 53.7844 28.2233C53.1088 27.8835 49.9152 26.7713 46.6602 25.7827L40.7643 23.9909L40.6722 14.8463C40.5801 5.73261 40.5801 5.70172 39.8124 4.3115C38.6455 2.24161 36.8645 1.12943 34.5 1.00585C33.4559 0.97496 32.1355 1.06764 31.5827 1.25301Z" fill="#4A86E8"/>
</svg>
