<svg width="153" height="54" viewBox="0 0 153 54" fill="none" xmlns="http://www.w3.org/2000/svg">
<rect width="153" height="54" rx="6" fill="#EEF3FB"/>
<g clip-path="url(#clip0_135_2589)">
<rect x="20" y="17.25" width="26" height="6.5" fill="white"/>
<rect x="20" y="23.75" width="26" height="6.5" fill="#41479B"/>
<rect x="20" y="30.25" width="26" height="6.5" fill="#DC251C"/>
</g>
<rect x="20.5" y="17.75" width="25" height="18.5" rx="2.5" stroke="#C9D2E0"/>
<path d="M63.7614 34V19.4545H68.6761C69.8172 19.4545 70.75 19.6605 71.4744 20.0724C72.2036 20.4796 72.7434 21.0312 73.0938 21.7273C73.4441 22.4233 73.6193 23.1998 73.6193 24.0568C73.6193 24.9138 73.4441 25.6927 73.0938 26.3935C72.7481 27.0942 72.2131 27.6529 71.4886 28.0696C70.7642 28.4815 69.8362 28.6875 68.7045 28.6875H65.1818V27.125H68.6477C69.429 27.125 70.0563 26.9901 70.5298 26.7202C71.0033 26.4503 71.3466 26.0857 71.5597 25.6264C71.7775 25.1624 71.8864 24.6392 71.8864 24.0568C71.8864 23.4744 71.7775 22.9536 71.5597 22.4943C71.3466 22.035 71.0009 21.6752 70.5227 21.4148C70.0445 21.1496 69.41 21.017 68.6193 21.017H65.5227V34H63.7614ZM80.544 34.2273C79.5592 34.2273 78.6951 33.9929 77.9517 33.5241C77.2131 33.0554 76.6354 32.3996 76.2188 31.5568C75.8068 30.714 75.6009 29.7292 75.6009 28.6023C75.6009 27.4659 75.8068 26.474 76.2188 25.6264C76.6354 24.7789 77.2131 24.1207 77.9517 23.652C78.6951 23.1832 79.5592 22.9489 80.544 22.9489C81.5289 22.9489 82.3906 23.1832 83.1293 23.652C83.8726 24.1207 84.4503 24.7789 84.8622 25.6264C85.2789 26.474 85.4872 27.4659 85.4872 28.6023C85.4872 29.7292 85.2789 30.714 84.8622 31.5568C84.4503 32.3996 83.8726 33.0554 83.1293 33.5241C82.3906 33.9929 81.5289 34.2273 80.544 34.2273ZM80.544 32.7216C81.2921 32.7216 81.9077 32.5298 82.3906 32.1463C82.8736 31.7628 83.2311 31.2585 83.4631 30.6335C83.6951 30.0085 83.8111 29.3314 83.8111 28.6023C83.8111 27.8731 83.6951 27.1937 83.4631 26.5639C83.2311 25.9342 82.8736 25.4252 82.3906 25.0369C81.9077 24.6487 81.2921 24.4545 80.544 24.4545C79.7959 24.4545 79.1804 24.6487 78.6974 25.0369C78.2145 25.4252 77.857 25.9342 77.625 26.5639C77.393 27.1937 77.277 27.8731 77.277 28.6023C77.277 29.3314 77.393 30.0085 77.625 30.6335C77.857 31.2585 78.2145 31.7628 78.6974 32.1463C79.1804 32.5298 79.7959 32.7216 80.544 32.7216ZM92.4776 34.2273C91.4549 34.2273 90.5742 33.9858 89.8356 33.5028C89.0969 33.0199 88.5288 32.3546 88.131 31.5071C87.7333 30.6596 87.5344 29.6913 87.5344 28.6023C87.5344 27.4943 87.738 26.5166 88.1452 25.669C88.5572 24.8168 89.1301 24.1515 89.864 23.6733C90.6026 23.1903 91.4644 22.9489 92.4492 22.9489C93.2163 22.9489 93.9076 23.0909 94.5231 23.375C95.1386 23.6591 95.6429 24.0568 96.0359 24.5682C96.4289 25.0795 96.6727 25.6761 96.7674 26.358H95.0913C94.9634 25.8608 94.6793 25.4205 94.239 25.0369C93.8034 24.6487 93.2163 24.4545 92.4776 24.4545C91.8242 24.4545 91.2513 24.625 90.7589 24.9659C90.2712 25.3021 89.89 25.7779 89.6154 26.3935C89.3455 27.0043 89.2106 27.7216 89.2106 28.5455C89.2106 29.3883 89.3432 30.1222 89.6083 30.7472C89.8782 31.3722 90.257 31.8575 90.7447 32.2031C91.2371 32.5488 91.8147 32.7216 92.4776 32.7216C92.9132 32.7216 93.3086 32.6458 93.6637 32.4943C94.0188 32.3428 94.3195 32.125 94.5657 31.8409C94.8119 31.5568 94.9871 31.2159 95.0913 30.8182H96.7674C96.6727 31.4621 96.4383 32.0421 96.0643 32.5582C95.695 33.0696 95.2049 33.4768 94.5941 33.7798C93.988 34.0781 93.2826 34.2273 92.4776 34.2273ZM103.65 34.2273C102.627 34.2273 101.746 33.9858 101.007 33.5028C100.269 33.0199 99.7006 32.3546 99.3029 31.5071C98.9052 30.6596 98.7063 29.6913 98.7063 28.6023C98.7063 27.4943 98.9099 26.5166 99.3171 25.669C99.729 24.8168 100.302 24.1515 101.036 23.6733C101.775 23.1903 102.636 22.9489 103.621 22.9489C104.388 22.9489 105.079 23.0909 105.695 23.375C106.31 23.6591 106.815 24.0568 107.208 24.5682C107.601 25.0795 107.845 25.6761 107.939 26.358H106.263C106.135 25.8608 105.851 25.4205 105.411 25.0369C104.975 24.6487 104.388 24.4545 103.65 24.4545C102.996 24.4545 102.423 24.625 101.931 24.9659C101.443 25.3021 101.062 25.7779 100.787 26.3935C100.517 27.0043 100.382 27.7216 100.382 28.5455C100.382 29.3883 100.515 30.1222 100.78 30.7472C101.05 31.3722 101.429 31.8575 101.917 32.2031C102.409 32.5488 102.987 32.7216 103.65 32.7216C104.085 32.7216 104.48 32.6458 104.836 32.4943C105.191 32.3428 105.491 32.125 105.738 31.8409C105.984 31.5568 106.159 31.2159 106.263 30.8182H107.939C107.845 31.4621 107.61 32.0421 107.236 32.5582C106.867 33.0696 106.377 33.4768 105.766 33.7798C105.16 34.0781 104.454 34.2273 103.65 34.2273ZM112.066 31.5284L117.321 23.0909H119.253V34H117.577V25.5625L112.35 34H110.39V23.0909H112.066V31.5284ZM128.886 34V24.625H125.988C125.335 24.625 124.821 24.7765 124.447 25.0795C124.073 25.3826 123.886 25.7992 123.886 26.3295C123.886 26.8504 124.054 27.2599 124.39 27.5582C124.731 27.8565 125.197 28.0057 125.789 28.0057H129.312V29.5682H125.789C125.05 29.5682 124.414 29.438 123.879 29.1776C123.344 28.9171 122.932 28.5455 122.643 28.0625C122.354 27.5748 122.21 26.9972 122.21 26.3295C122.21 25.6572 122.361 25.0795 122.664 24.5966C122.967 24.1136 123.4 23.742 123.964 23.4815C124.532 23.2211 125.207 23.0909 125.988 23.0909H130.477V34H128.886ZM121.613 34L124.71 28.5739H126.528L123.431 34H121.613Z" fill="black"/>
<defs>
<clipPath id="clip0_135_2589">
<rect x="20" y="17.25" width="26" height="19.5" rx="3" fill="white"/>
</clipPath>
</defs>
</svg>
