<svg width="73" height="30" viewBox="0 0 73 30" fill="none" xmlns="http://www.w3.org/2000/svg">
<path d="M15.3181 29.3831C12.3836 29.3831 9.65145 28.5097 7.37028 27.0125L1.8189 28.7766L3.6231 23.4533C1.89385 21.0902 0.872065 18.1865 0.872065 15.0493C0.872065 7.14529 7.35244 0.715073 15.3181 0.715073C23.2832 0.715073 29.7636 7.14529 29.7636 15.0493C29.7636 22.9529 23.2832 29.3831 15.3181 29.3831Z" fill="#25D366"/>
<path fill-rule="evenodd" clip-rule="evenodd" d="M11.5593 9.20298C11.3318 8.65553 11.1574 8.6368 10.8058 8.62025C10.6852 8.6144 10.5545 8.60889 10.4114 8.60889C9.95837 8.60889 9.48868 8.74211 9.20566 9.03097C8.86126 9.38267 8 10.2064 8 11.8976C8 13.5892 9.23431 15.2235 9.40626 15.453C9.57877 15.6822 11.8136 19.204 15.2907 20.6418C18.0046 21.7638 18.8104 21.6639 19.4296 21.5287C20.3306 21.3324 21.4618 20.6702 21.7489 19.8678C22.0359 19.065 22.0359 18.3768 21.9499 18.2339C21.8638 18.0903 21.634 18.0047 21.2896 17.8323C20.9453 17.6604 19.2514 16.8288 18.9359 16.7143C18.62 16.5998 18.3281 16.6347 18.0852 16.97C17.7501 17.433 17.4278 17.9088 17.1608 18.1908C16.9513 18.4123 16.6141 18.4431 16.3242 18.3201C15.9429 18.158 14.8698 17.7848 13.554 16.614C12.5301 15.703 11.8388 14.5777 11.6378 14.2335C11.4368 13.8897 11.6201 13.6844 11.7749 13.4974C11.9515 13.2838 12.1145 13.1306 12.2867 12.93C12.4589 12.7292 12.5551 12.6222 12.6699 12.3926C12.7847 12.1634 12.7075 11.9269 12.6213 11.7547C12.535 11.5825 11.8455 9.89151 11.5593 9.20298Z" fill="white"/>
<g clip-path="url(#clip0_1_1449)">
<path d="M59 29C66.732 29 73 22.732 73 15C73 7.26801 66.732 1 59 1C51.268 1 45 7.26801 45 15C45 22.732 51.268 29 59 29Z" fill="#37AEE2"/>
<path d="M50.8268 14.8787L60.2545 10.9943C61.1852 10.5897 64.3412 9.29486 64.3412 9.29486C64.3412 9.29486 65.7979 8.72838 65.6765 10.1041C65.636 10.6706 65.3123 12.6532 64.9886 14.7977L63.9771 21.1503C63.9771 21.1503 63.8961 22.081 63.2083 22.2428C62.5204 22.4047 61.3875 21.6764 61.1852 21.5145C61.0233 21.3931 58.1505 19.5723 57.0984 18.6821C56.8152 18.4394 56.4915 17.9538 57.1389 17.3873C58.5956 16.0521 60.3354 14.3931 61.3875 13.3411C61.873 12.8555 62.3586 11.7226 60.3354 13.0983L54.6302 16.9423C54.6302 16.9423 53.9828 17.3469 52.769 16.9827C51.5551 16.6186 50.1389 16.133 50.1389 16.133C50.1389 16.133 49.1678 15.5261 50.8268 14.8787Z" fill="white"/>
</g>
<defs>
<clipPath id="clip0_1_1449">
<rect width="28" height="28" fill="white" transform="translate(45 1)"/>
</clipPath>
</defs>
</svg>
