<svg width="165" height="54" viewBox="0 0 165 54" fill="none" xmlns="http://www.w3.org/2000/svg">
<rect x="0.5" width="164" height="54" rx="6" fill="#EEF3FB"/>
<g clip-path="url(#clip0_135_2614)">
<rect x="20.5" y="17" width="26" height="4" fill="#BE0C37"/>
<rect x="20.5" y="33" width="26" height="4" fill="#BE0C37"/>
<rect x="20.5" y="21" width="26" height="3" fill="white"/>
<rect x="19.5" y="30" width="26" height="3" fill="white"/>
<rect x="20.5" y="23.75" width="26" height="6.5" fill="#32377B"/>
</g>
<rect x="21" y="17.75" width="25" height="18.5" rx="2.5" stroke="#C9D2E0"/>
<path d="M63.4659 21.017V19.4545H74.375V21.017H69.8011V34H68.0398V21.017H63.4659ZM78.592 34.2557C77.9007 34.2557 77.2733 34.1255 76.7099 33.8651C76.1464 33.5999 75.699 33.2188 75.3675 32.7216C75.0361 32.2197 74.8704 31.6136 74.8704 30.9034C74.8704 30.2784 74.9935 29.7718 75.2397 29.3835C75.4859 28.9905 75.815 28.6828 76.2269 28.4602C76.6388 28.2377 77.0934 28.072 77.5906 27.9631C78.0924 27.8494 78.5967 27.7595 79.1033 27.6932C79.7662 27.608 80.3036 27.544 80.7156 27.5014C81.1322 27.4541 81.4353 27.3759 81.6246 27.267C81.8188 27.1581 81.9158 26.9687 81.9158 26.6989V26.642C81.9158 25.9413 81.7241 25.3968 81.3406 25.0085C80.9618 24.6203 80.3865 24.4261 79.6147 24.4261C78.8145 24.4261 78.1871 24.6013 77.7326 24.9517C77.2781 25.3021 76.9585 25.6761 76.7738 26.0739L75.1829 25.5057C75.467 24.8428 75.8458 24.3267 76.3192 23.9574C76.7975 23.5833 77.3183 23.3229 77.8817 23.1761C78.4499 23.0246 79.0086 22.9489 79.5579 22.9489C79.9083 22.9489 80.3107 22.9915 80.7653 23.0767C81.2246 23.1572 81.6673 23.3253 82.0934 23.581C82.5243 23.8366 82.8817 24.2225 83.1658 24.7386C83.4499 25.2547 83.592 25.946 83.592 26.8125V34H81.9158V32.5227H81.8306C81.717 32.7595 81.5276 33.0128 81.2624 33.2827C80.9973 33.5526 80.6445 33.7822 80.2042 33.9716C79.7638 34.161 79.2264 34.2557 78.592 34.2557ZM78.8477 32.75C79.5105 32.75 80.0692 32.6198 80.5238 32.3594C80.9831 32.099 81.3287 31.7628 81.5607 31.3509C81.7975 30.9389 81.9158 30.5057 81.9158 30.0511V28.517C81.8448 28.6023 81.6886 28.6804 81.4471 28.7514C81.2103 28.8177 80.9357 28.8769 80.6232 28.929C80.3155 28.9763 80.0148 29.0189 79.7212 29.0568C79.4324 29.09 79.198 29.1184 79.0181 29.142C78.5825 29.1989 78.1753 29.2912 77.7965 29.419C77.4225 29.5421 77.1194 29.7292 76.8874 29.9801C76.6602 30.2263 76.5465 30.5625 76.5465 30.9886C76.5465 31.571 76.762 32.0114 77.1928 32.3097C77.6284 32.6032 78.18 32.75 78.8477 32.75ZM88.3274 31.5284L93.5831 23.0909H95.5149V34H93.8388V25.5625L88.6115 34H86.6513V23.0909H88.3274V31.5284ZM92.4751 19.4545H94.0376C94.0376 20.2216 93.7725 20.849 93.2422 21.3366C92.7119 21.8243 91.9922 22.0682 91.0831 22.0682C90.1882 22.0682 89.4756 21.8243 88.9453 21.3366C88.4197 20.849 88.157 20.2216 88.157 19.4545H89.7195C89.7195 19.8239 89.8213 20.1482 90.0249 20.4276C90.2332 20.7069 90.5859 20.8466 91.0831 20.8466C91.5803 20.8466 91.9354 20.7069 92.1484 20.4276C92.3662 20.1482 92.4751 19.8239 92.4751 19.4545ZM97.619 34V32.4375H98.0167C98.3434 32.4375 98.6156 32.3736 98.8335 32.2457C99.0513 32.1132 99.2264 31.8835 99.359 31.5568C99.4963 31.2254 99.6005 30.7661 99.6715 30.179C99.7473 29.5871 99.8017 28.8343 99.8349 27.9205L100.034 23.0909H107.306V34H105.63V24.6534H101.625L101.454 28.5455C101.416 29.4403 101.336 30.2287 101.213 30.9105C101.094 31.5876 100.912 32.1558 100.666 32.6151C100.424 33.0743 100.102 33.42 99.6999 33.652C99.2975 33.884 98.7932 34 98.1871 34H97.619ZM113.592 34.2557C112.901 34.2557 112.273 34.1255 111.71 33.8651C111.146 33.5999 110.699 33.2188 110.368 32.7216C110.036 32.2197 109.87 31.6136 109.87 30.9034C109.87 30.2784 109.993 29.7718 110.24 29.3835C110.486 28.9905 110.815 28.6828 111.227 28.4602C111.639 28.2377 112.093 28.072 112.591 27.9631C113.092 27.8494 113.597 27.7595 114.103 27.6932C114.766 27.608 115.304 27.544 115.716 27.5014C116.132 27.4541 116.435 27.3759 116.625 27.267C116.819 27.1581 116.916 26.9687 116.916 26.6989V26.642C116.916 25.9413 116.724 25.3968 116.341 25.0085C115.962 24.6203 115.386 24.4261 114.615 24.4261C113.815 24.4261 113.187 24.6013 112.733 24.9517C112.278 25.3021 111.958 25.6761 111.774 26.0739L110.183 25.5057C110.467 24.8428 110.846 24.3267 111.319 23.9574C111.797 23.5833 112.318 23.3229 112.882 23.1761C113.45 23.0246 114.009 22.9489 114.558 22.9489C114.908 22.9489 115.311 22.9915 115.765 23.0767C116.225 23.1572 116.667 23.3253 117.093 23.581C117.524 23.8366 117.882 24.2225 118.166 24.7386C118.45 25.2547 118.592 25.946 118.592 26.8125V34H116.916V32.5227H116.831C116.717 32.7595 116.528 33.0128 116.262 33.2827C115.997 33.5526 115.645 33.7822 115.204 33.9716C114.764 34.161 114.226 34.2557 113.592 34.2557ZM113.848 32.75C114.511 32.75 115.069 32.6198 115.524 32.3594C115.983 32.099 116.329 31.7628 116.561 31.3509C116.797 30.9389 116.916 30.5057 116.916 30.0511V28.517C116.845 28.6023 116.689 28.6804 116.447 28.7514C116.21 28.8177 115.936 28.8769 115.623 28.929C115.315 28.9763 115.015 29.0189 114.721 29.0568C114.432 29.09 114.198 29.1184 114.018 29.142C113.583 29.1989 113.175 29.2912 112.797 29.419C112.422 29.5421 112.119 29.7292 111.887 29.9801C111.66 30.2263 111.547 30.5625 111.547 30.9886C111.547 31.571 111.762 32.0114 112.193 32.3097C112.628 32.6032 113.18 32.75 113.848 32.75ZM128.952 27.7784V29.3409H122.93V27.7784H128.952ZM123.327 23.0909V34H121.651V23.0909H123.327ZM130.231 23.0909V34H128.555V23.0909H130.231ZM132.127 37.125V32.4375H133.036C133.259 32.2055 133.451 31.9545 133.612 31.6847C133.772 31.4148 133.912 31.0952 134.031 30.7259C134.154 30.3518 134.258 29.8973 134.343 29.3622C134.428 28.8224 134.504 28.1714 134.57 27.4091L134.94 23.0909H141.871V32.4375H143.548V37.125H141.871V34H133.803V37.125H132.127ZM134.94 32.4375H140.195V24.6534H136.502L136.218 27.4091C136.1 28.5502 135.953 29.5469 135.778 30.3991C135.603 31.2514 135.323 31.9309 134.94 32.4375Z" fill="black"/>
<defs>
<clipPath id="clip0_135_2614">
<rect x="20.5" y="17.25" width="26" height="19.5" rx="3" fill="white"/>
</clipPath>
</defs>
</svg>
