<svg width="27" height="20" viewBox="0 0 27 20" fill="none" xmlns="http://www.w3.org/2000/svg">
<rect y="0.0625" width="26.5" height="19.875" rx="3" fill="#E31D1C"/>
<path fill-rule="evenodd" clip-rule="evenodd" d="M13.7728 14.372C12.3694 14.6435 10.8606 14.2359 9.77373 13.149C8.03461 11.4099 8.03461 8.59026 9.77373 6.85115C10.8608 5.76412 12.3699 5.35654 13.7735 5.62839C11.7141 4.22105 8.88097 4.43141 7.0529 6.25948C4.98712 8.32526 4.98712 11.6746 7.0529 13.7403C8.88074 15.5682 11.7134 15.7787 13.7728 14.372Z" fill="#F5F8FB"/>
<path d="M15.7344 7.51562L16.3915 9.09554L18.0972 9.23229L16.7976 10.3455L17.1947 12.0099L15.7344 11.118L14.2741 12.0099L14.6711 10.3455L13.3716 9.23229L15.0772 9.09554L15.7344 7.51562Z" fill="#F5F8FB"/>
</svg>
