<svg width="154" height="54" viewBox="0 0 154 54" fill="none" xmlns="http://www.w3.org/2000/svg">
<rect width="153.5" height="54" rx="6" fill="#EEF3FB"/>
<rect x="20" y="17.0625" width="26.5" height="19.875" rx="3" fill="#E31D1C"/>
<path fill-rule="evenodd" clip-rule="evenodd" d="M33.7728 31.372C32.3694 31.6435 30.8606 31.2359 29.7737 30.149C28.0346 28.4099 28.0346 25.5903 29.7737 23.8511C30.8608 22.7641 32.3699 22.3565 33.7735 22.6284C31.7141 21.221 28.881 21.4314 27.0529 23.2595C24.9871 25.3253 24.9871 28.6746 27.0529 30.7403C28.8807 32.5682 31.7134 32.7787 33.7728 31.372Z" fill="#F5F8FB"/>
<path d="M35.7344 24.5156L36.3915 26.0955L38.0972 26.2323L36.7976 27.3455L37.1947 29.0099L35.7344 28.118L34.2741 29.0099L34.6711 27.3455L33.3716 26.2323L35.0772 26.0955L35.7344 24.5156Z" fill="#F5F8FB"/>
<path d="M63.4659 21.017V19.4545H74.375V21.017H69.8011V34H68.0398V21.017H63.4659ZM76.6957 38.0909C76.4116 38.0909 76.1583 38.0672 75.9357 38.0199C75.7132 37.9773 75.5593 37.9347 75.4741 37.892L75.9002 36.4148C76.3074 36.5189 76.6673 36.5568 76.9798 36.5284C77.2923 36.5 77.5692 36.3603 77.8107 36.1094C78.0569 35.8632 78.2818 35.4631 78.4854 34.9091L78.7979 34.0568L74.7638 23.0909H76.582L79.5934 31.7841H79.707L82.7184 23.0909H84.5366L79.9059 35.5909C79.6976 36.1544 79.4395 36.6207 79.1317 36.9901C78.824 37.3641 78.4665 37.6411 78.0593 37.821C77.6568 38.0009 77.2023 38.0909 76.6957 38.0909ZM86.7489 38.0909V23.0909H88.3683V24.8239H88.5671C88.6902 24.6345 88.8607 24.393 89.0785 24.0994C89.301 23.8011 89.6183 23.536 90.0302 23.304C90.4469 23.0672 91.0103 22.9489 91.7205 22.9489C92.6391 22.9489 93.4487 23.1785 94.1495 23.6378C94.8503 24.0971 95.3971 24.7481 95.7901 25.5909C96.1831 26.4337 96.3796 27.428 96.3796 28.5739C96.3796 29.7292 96.1831 30.7306 95.7901 31.5781C95.3971 32.4209 94.8526 33.0743 94.1566 33.5384C93.4606 33.9976 92.658 34.2273 91.7489 34.2273C91.0482 34.2273 90.4871 34.1113 90.0657 33.8793C89.6443 33.6425 89.32 33.375 89.0927 33.0767C88.8654 32.7737 88.6902 32.5227 88.5671 32.3239H88.4251V38.0909H86.7489ZM88.3967 28.5455C88.3967 29.3693 88.5174 30.0961 88.7589 30.7259C89.0004 31.3509 89.3531 31.8409 89.8171 32.196C90.2811 32.5464 90.8493 32.7216 91.5217 32.7216C92.2224 32.7216 92.8072 32.5369 93.2759 32.1676C93.7494 31.7936 94.1045 31.2917 94.3413 30.6619C94.5827 30.0275 94.7035 29.322 94.7035 28.5455C94.7035 27.7784 94.5851 27.0871 94.3484 26.4716C94.1164 25.8513 93.7636 25.3613 93.2901 25.0014C92.8214 24.6368 92.2319 24.4545 91.5217 24.4545C90.8398 24.4545 90.2669 24.6274 89.8029 24.973C89.3389 25.3139 88.9885 25.7921 88.7518 26.4077C88.515 27.0185 88.3967 27.7311 88.3967 28.5455ZM107.516 23.0909V32.4375H109.05V37.5227H107.374V34H98.9364V23.0909H100.613V32.4375H105.84V23.0909H107.516ZM113.308 31.5284L118.564 23.0909H120.495V34H118.819V25.5625L113.592 34H111.632V23.0909H113.308V31.5284ZM130.128 34V24.625H127.23C126.577 24.625 126.063 24.7765 125.689 25.0795C125.315 25.3826 125.128 25.7992 125.128 26.3295C125.128 26.8504 125.296 27.2599 125.632 27.5582C125.973 27.8565 126.439 28.0057 127.031 28.0057H130.554V29.5682H127.031C126.293 29.5682 125.656 29.438 125.121 29.1776C124.586 28.9171 124.174 28.5455 123.885 28.0625C123.596 27.5748 123.452 26.9972 123.452 26.3295C123.452 25.6572 123.603 25.0795 123.906 24.5966C124.209 24.1136 124.643 23.742 125.206 23.4815C125.774 23.2211 126.449 23.0909 127.23 23.0909H131.719V34H130.128ZM122.855 34L125.952 28.5739H127.77L124.673 34H122.855Z" fill="black"/>
</svg>
