<svg width="68" height="68" viewBox="0 0 68 68" fill="none" xmlns="http://www.w3.org/2000/svg">
<path d="M64.2573 1.32547H29.6995C28.1122 1.32547 26.8254 2.61223 26.8254 4.19953V8.07766C26.8254 9.66496 28.1122 10.9517 29.6995 10.9517H64.2573C65.8446 10.9517 67.1314 9.66496 67.1314 8.07766V4.19953C67.1314 2.61223 65.8446 1.32547 64.2573 1.32547Z" fill="#4A86E8"/>
<path d="M66.0423 12.9758C66.6568 13.4574 66.9924 14.0914 67.0491 14.8777C67.1801 16.7299 67.1881 18.5805 67.073 20.4292C67.0234 21.2296 66.8516 21.8273 66.5577 22.2222C66.2832 22.5923 65.9334 22.8792 65.5084 23.0828C65.1932 23.2316 64.7611 23.3095 64.2122 23.3166C57.4352 23.3874 50.5723 23.4069 43.6236 23.375C43.4297 23.3723 43.2783 23.2077 43.2942 23.0138C43.4589 20.9844 42.8072 19.7598 41.3392 19.3402C40.9904 19.241 39.811 19.1914 37.8011 19.1914C34.2081 19.1914 30.6097 19.1914 27.0061 19.1914C26.9078 19.1914 26.8281 19.1117 26.8281 19.0134C26.8281 18.1068 26.8281 17.2231 26.8281 16.3625C26.8281 15.1867 26.9264 14.3854 27.123 13.9586C27.3904 13.3742 27.8286 12.9466 28.4378 12.6756C28.8239 12.5039 29.4011 12.418 30.1697 12.418C41.6075 12.418 53.0444 12.418 64.4805 12.418C65.0454 12.418 65.566 12.6039 66.0423 12.9758Z" fill="#4A86E8"/>
<path d="M38.6696 21.3828H4.80241C3.28259 21.3828 2.05054 22.6149 2.05054 24.1347V27.9916C2.05054 29.5114 3.28259 30.7434 4.80241 30.7434H38.6696C40.1894 30.7434 41.4215 29.5114 41.4215 27.9916V24.1347C41.4215 22.6149 40.1894 21.3828 38.6696 21.3828Z" fill="#4A86E8"/>
<path d="M66.0263 25.4177C66.7648 26.0091 67.134 26.7892 67.134 27.7578C67.1358 28.9478 67.1367 30.1369 67.1367 31.3252C67.1367 32.7826 67.0277 33.7539 66.8099 34.2391C66.3336 35.2945 65.3578 35.8204 63.8827 35.8169C57.1536 35.8009 50.3686 35.793 43.5279 35.793C43.4084 35.793 43.3127 35.6973 43.3127 35.5805V25.0086C43.3127 24.913 43.3924 24.8359 43.4881 24.8359C50.5324 24.8359 57.5077 24.8404 64.414 24.8492C65.0178 24.851 65.5553 25.0405 66.0263 25.4177Z" fill="#4A86E8"/>
<path d="M38.7122 32.207H4.76528C3.26894 32.207 2.05591 33.4201 2.05591 34.9164V40.1864C2.05591 41.6828 3.26894 42.8958 4.76528 42.8958H38.7122C40.2085 42.8958 41.4215 41.6828 41.4215 40.1864V34.9164C41.4215 33.4201 40.2085 32.207 38.7122 32.207Z" fill="#4A86E8"/>
<path d="M65.9042 37.7506C66.2637 38.0038 66.5479 38.3137 66.7569 38.6803C66.9251 38.976 67.0234 39.37 67.0517 39.8623C67.096 40.6521 67.1243 41.8634 67.1367 43.4961C67.1474 44.9128 66.6533 45.9009 65.6545 46.4605C65.2313 46.6978 64.6018 46.8164 63.766 46.8164C57.0138 46.8235 50.2616 46.8182 43.5094 46.8005C43.4377 46.8005 43.3766 46.742 43.3739 46.6703C43.2429 43.582 43.2429 40.4928 43.3739 37.4027C43.3766 37.3283 43.4377 37.2698 43.512 37.2698C50.4573 37.2504 57.4025 37.2468 64.3477 37.2592C64.9214 37.2592 65.4403 37.423 65.9042 37.7506Z" fill="#4A86E8"/>
<path d="M38.6378 44.293H4.83963C3.30074 44.293 2.05322 45.5405 2.05322 47.0794V52.2644C2.05322 53.8033 3.30074 55.0508 4.83963 55.0508H38.6378C40.1766 55.0508 41.4242 53.8033 41.4242 52.2644V47.0794C41.4242 45.5405 40.1766 44.293 38.6378 44.293Z" fill="#4A86E8"/>
<path d="M38.6696 56.4506H4.80775C3.28647 56.4506 2.05322 57.6839 2.05322 59.2052V63.0567C2.05322 64.578 3.28647 65.8112 4.80775 65.8112H38.6696C40.1909 65.8112 41.4242 64.578 41.4242 63.0567V59.2052C41.4242 57.6839 40.1909 56.4506 38.6696 56.4506Z" fill="#4A86E8"/>
</svg>
