<svg width="167" height="54" viewBox="0 0 167 54" fill="none" xmlns="http://www.w3.org/2000/svg">
<rect x="0.5" width="166" height="54" rx="6" fill="#EEF3FB"/>
<g clip-path="url(#clip0_135_2622)">
<rect x="20.5" y="17.25" width="26" height="6.5" fill="white"/>
<rect x="20.5" y="23.75" width="26" height="6.5" fill="#41479B"/>
<rect x="20.5" y="17" width="26" height="20" fill="#DC251C"/>
<path d="M33.5 22L34.6226 25.4549H38.2553L35.3164 27.5902L36.4389 31.0451L33.5 28.9098L30.5611 31.0451L31.6836 27.5902L28.7447 25.4549H32.3774L33.5 22Z" fill="#FFE600"/>
</g>
<rect x="21" y="17.75" width="25" height="18.5" rx="2.5" stroke="#C9D2E0"/>
<path d="M64.2614 34V19.4545H69.3466C70.3598 19.4545 71.1955 19.6297 71.8537 19.9801C72.5118 20.3258 73.0019 20.7921 73.3239 21.3793C73.6458 21.9616 73.8068 22.608 73.8068 23.3182C73.8068 23.9432 73.6955 24.4593 73.473 24.8665C73.2552 25.2737 72.9664 25.5956 72.6065 25.8324C72.2514 26.0691 71.8655 26.2443 71.4489 26.358V26.5C71.8939 26.5284 72.3414 26.6847 72.7912 26.9688C73.241 27.2528 73.6174 27.66 73.9205 28.1903C74.2235 28.7206 74.375 29.3693 74.375 30.1364C74.375 30.8655 74.2093 31.5213 73.8778 32.1037C73.5464 32.6861 73.0232 33.1477 72.3082 33.4886C71.5933 33.8295 70.6629 34 69.517 34H64.2614ZM66.0227 32.4375H69.517C70.6676 32.4375 71.4844 32.215 71.9673 31.7699C72.455 31.3201 72.6989 30.7756 72.6989 30.1364C72.6989 29.6439 72.5734 29.1894 72.3224 28.7727C72.0715 28.3513 71.714 28.0152 71.25 27.7642C70.786 27.5085 70.2367 27.3807 69.6023 27.3807H66.0227V32.4375ZM66.0227 25.8466H69.2898C69.8201 25.8466 70.2983 25.7424 70.7244 25.5341C71.1553 25.3258 71.4962 25.0322 71.7472 24.6534C72.0028 24.2746 72.1307 23.8295 72.1307 23.3182C72.1307 22.679 71.9081 22.1368 71.4631 21.6918C71.018 21.242 70.3125 21.017 69.3466 21.017H66.0227V25.8466ZM78.4908 27.0398H81.6158C82.8942 27.0398 83.8719 27.3641 84.549 28.0128C85.2261 28.6615 85.5646 29.483 85.5646 30.4773C85.5646 31.1307 85.4131 31.7249 85.1101 32.2599C84.8071 32.7902 84.362 33.214 83.7749 33.5312C83.1877 33.8438 82.468 34 81.6158 34H77.0419V23.0909H78.718V32.4375H81.6158C82.2786 32.4375 82.8232 32.2623 83.2493 31.9119C83.6754 31.5616 83.8885 31.1117 83.8885 30.5625C83.8885 29.9848 83.6754 29.5137 83.2493 29.1491C82.8232 28.7846 82.2786 28.6023 81.6158 28.6023H78.4908V27.0398ZM92.69 34.2273C91.6388 34.2273 90.7321 33.9953 89.9698 33.5312C89.2122 33.0625 88.6275 32.4091 88.2156 31.571C87.8084 30.7282 87.6048 29.7481 87.6048 28.6307C87.6048 27.5133 87.8084 26.5284 88.2156 25.6761C88.6275 24.8191 89.2004 24.1515 89.9343 23.6733C90.6729 23.1903 91.5347 22.9489 92.5195 22.9489C93.0877 22.9489 93.6488 23.0436 94.2028 23.233C94.7567 23.4223 95.261 23.7301 95.7156 24.1562C96.1701 24.5777 96.5323 25.1364 96.8022 25.8324C97.0721 26.5284 97.207 27.3854 97.207 28.4034V29.1136H88.7979V27.6648H95.5025C95.5025 27.0492 95.3794 26.5 95.1332 26.017C94.8917 25.5341 94.546 25.1529 94.0962 24.8736C93.6512 24.5942 93.1256 24.4545 92.5195 24.4545C91.8519 24.4545 91.2743 24.6203 90.7866 24.9517C90.3036 25.2784 89.9319 25.7045 89.6715 26.2301C89.4111 26.7557 89.2809 27.3191 89.2809 27.9205V28.8864C89.2809 29.7102 89.4229 30.4086 89.707 30.9815C89.9959 31.5497 90.396 31.983 90.9073 32.2812C91.4187 32.5748 92.0129 32.7216 92.69 32.7216C93.1303 32.7216 93.5281 32.66 93.8832 32.5369C94.243 32.4091 94.5531 32.2197 94.8136 31.9688C95.074 31.7131 95.2752 31.3958 95.4173 31.017L97.0366 31.4716C96.8661 32.0208 96.5797 32.5038 96.1772 32.9205C95.7747 33.3324 95.2776 33.6544 94.6857 33.8864C94.0939 34.1136 93.4286 34.2273 92.69 34.2273ZM98.7411 24.6534V23.0909H107.605V24.6534H104.025V34H102.349V24.6534H98.7411ZM117.351 27.7784V29.3409H111.328V27.7784H117.351ZM111.726 23.0909V34H110.05V23.0909H111.726ZM118.629 23.0909V34H116.953V23.0909H118.629ZM124.901 34.2557C124.209 34.2557 123.582 34.1255 123.018 33.8651C122.455 33.5999 122.008 33.2188 121.676 32.7216C121.345 32.2197 121.179 31.6136 121.179 30.9034C121.179 30.2784 121.302 29.7718 121.548 29.3835C121.795 28.9905 122.124 28.6828 122.536 28.4602C122.947 28.2377 123.402 28.072 123.899 27.9631C124.401 27.8494 124.905 27.7595 125.412 27.6932C126.075 27.608 126.612 27.544 127.024 27.5014C127.441 27.4541 127.744 27.3759 127.933 27.267C128.127 27.1581 128.224 26.9687 128.224 26.6989V26.642C128.224 25.9413 128.033 25.3968 127.649 25.0085C127.27 24.6203 126.695 24.4261 125.923 24.4261C125.123 24.4261 124.496 24.6013 124.041 24.9517C123.587 25.3021 123.267 25.6761 123.082 26.0739L121.491 25.5057C121.776 24.8428 122.154 24.3267 122.628 23.9574C123.106 23.5833 123.627 23.3229 124.19 23.1761C124.759 23.0246 125.317 22.9489 125.866 22.9489C126.217 22.9489 126.619 22.9915 127.074 23.0767C127.533 23.1572 127.976 23.3253 128.402 23.581C128.833 23.8366 129.19 24.2225 129.474 24.7386C129.759 25.2547 129.901 25.946 129.901 26.8125V34H128.224V32.5227H128.139C128.026 32.7595 127.836 33.0128 127.571 33.2827C127.306 33.5526 126.953 33.7822 126.513 33.9716C126.072 34.161 125.535 34.2557 124.901 34.2557ZM125.156 32.75C125.819 32.75 126.378 32.6198 126.832 32.3594C127.292 32.099 127.637 31.7628 127.869 31.3509C128.106 30.9389 128.224 30.5057 128.224 30.0511V28.517C128.153 28.6023 127.997 28.6804 127.756 28.7514C127.519 28.8177 127.244 28.8769 126.932 28.929C126.624 28.9763 126.323 29.0189 126.03 29.0568C125.741 29.09 125.507 29.1184 125.327 29.142C124.891 29.1989 124.484 29.2912 124.105 29.419C123.731 29.5421 123.428 29.7292 123.196 29.9801C122.969 30.2263 122.855 30.5625 122.855 30.9886C122.855 31.571 123.071 32.0114 123.501 32.3097C123.937 32.6032 124.489 32.75 125.156 32.75ZM138.926 31.7273L142.733 23.0909H144.324L139.608 34H138.244L133.613 23.0909H135.176L138.926 31.7273ZM134.636 23.0909V34H132.96V23.0909H134.636ZM143.216 34V23.0909H144.892V34H143.216Z" fill="black"/>
<defs>
<clipPath id="clip0_135_2622">
<rect x="20.5" y="17.25" width="26" height="19.5" rx="3" fill="white"/>
</clipPath>
</defs>
</svg>
